<svg width="542" height="452" fill="none" xmlns="http://www.w3.org/2000/svg"><path d="M101.192 402.258c100.779 65.66 264.239 65.66 365.018 0 100.78-65.66 100.78-172.103 0-237.749-100.779-65.647-264.239-65.66-365.018 0-100.78 65.66-100.816 172.102 0 237.749Z" fill="#FAFAFA"/><path d="M495.289 159.696c.553-7.619 5.875-20.608 13.753-29.827 7.878-9.219 20.488-13.721 28.267-9.992 7.251 3.484 5.654 14.195-3.908 20.526-9.562 6.332-23.794 14.114-28.673 26.113l-9.439 14.398v-21.218Z" fill="#02897A"/><path opacity=".2" d="M495.289 159.696c.553-7.619 5.875-20.608 13.753-29.827 7.878-9.219 20.488-13.721 28.267-9.992 7.251 3.484 5.654 14.195-3.908 20.526-9.562 6.332-23.794 14.114-28.673 26.113l-9.439 14.398v-21.218Z" fill="#000"/><path d="M534.298 123.402c-9.033 1.898-35.506 20.703-38.972 49.093" stroke="#fff" stroke-miterlimit="10" stroke-linecap="round"/><path d="M496.358 193.903c1.389-4.067 7.436-11.619 16.137-15.32 8.702-3.702 15.265-7.01 18.435-12.975 3.171-5.966-2.347-11.823-11.134-11.402-8.788.42-23.425 10.575-24.458 26.709l1.02 12.988Z" fill="#02897A"/><path d="M524.269 159.032c-7.595.827-26.055 13.178-28.538 27.007" stroke="#fff" stroke-miterlimit="10" stroke-linecap="round"/><path d="M42.396 232.624c-.376-10.772-2.546-21.374-6.403-31.278-6.477-16.934-19.579-25.896-26.56-27.116-6.98-1.22-14.195 8.135-5.309 19.252 8.886 11.118 25.92 26.004 30.812 48.524l8 15.374-.54-24.756Z" fill="#02897A"/><path opacity=".2" d="M42.396 232.624c-.376-10.772-2.546-21.374-6.403-31.278-6.477-16.934-19.579-25.896-26.56-27.116-6.98-1.22-14.195 8.135-5.309 19.252 8.886 11.118 25.92 26.004 30.812 48.524l8 15.374-.54-24.756Z" fill="#000"/><path d="M9.433 179.396c14.33 9.409 30.935 34.097 33.258 66.907" stroke="#fff" stroke-linecap="round" stroke-linejoin="round"/><path d="M41.302 273.147c-1.979-8.744-7.153-17.272-17.489-25.841-10.336-8.568-24.15-15.93-23.02-24.675 1.131-8.745 11.602-8.135 19.271-4.271 7.67 3.864 20.968 19.768 22.873 38.993l-1.635 15.794Z" fill="#02897A"/><path d="M8.045 219.893c9.955 2.712 31.315 24.268 34.412 42.626" stroke="#fff" stroke-linecap="round" stroke-linejoin="round"/><path d="M44.129 278.543a6.647 6.647 0 0 1-2.004-2.337c-.491-.942-.773-2-.823-3.086V77.413a7.45 7.45 0 0 1 .826-3.084 6.685 6.685 0 0 1 2-2.339L107.51 31.63a4.969 4.969 0 0 1 2.729-.89 4.939 4.939 0 0 1 2.754.788 5.64 5.64 0 0 1 1.992 2.241c.468.933.696 1.988.661 3.053v13.07c0 1.993 1.229 2.807 2.839 1.803l79.309-50.502a4.968 4.968 0 0 1 2.725-.89 4.94 4.94 0 0 1 2.752.785 5.637 5.637 0 0 1 1.993 2.235c.469.931.699 1.985.666 3.049v300.82l-58.452 37.203-103.348-65.851Z" fill="#263238"/><path d="M203.274 1.097a5.564 5.564 0 0 0-2.752-.672 5.596 5.596 0 0 0-2.729.78l-79.309 50.503c-1.573 1.003-2.839.19-2.839-1.803v-13.07a6.368 6.368 0 0 0-.66-3.053 5.651 5.651 0 0 0-1.993-2.241 4.938 4.938 0 0 0-2.754-.788 4.969 4.969 0 0 0-2.729.89l-63.38 40.361a6.327 6.327 0 0 0-2.003 2.332L78.48 97.493l127.449-81.198v-9.91a7.207 7.207 0 0 0-.755-2.994 6.488 6.488 0 0 0-1.9-2.294Z" fill="#455A64"/><path d="m203.102 4.581-84.618 53.892c-1.573 1.004-2.839.19-2.839-1.803V36.835c0-1.993-1.229-2.806-2.826-1.803l-63.38 40.361a6.67 6.67 0 0 0-2.003 2.338c-.492.943-.774 2-.825 3.086v189.009a7.407 7.407 0 0 0 .828 3.089 6.65 6.65 0 0 0 2.011 2.334l103.373 65.836 53.106-33.813V6.384c0-1.993-1.266-2.793-2.827-1.803Z" fill="#37474F"/><path d="M47.447 272.836a6.111 6.111 0 0 0 2.003 2.332l103.373 65.836 53.106-33.813V171.898L47.447 272.836Z" fill="#263238"/><path d="m60.278 315.922-.774-.488a5.343 5.343 0 0 1-1.605-1.863 5.954 5.954 0 0 1-.669-2.462v-183.64c.042-.868.27-1.713.665-2.465a5.298 5.298 0 0 1 1.609-1.86L230.214 14.41a4.63 4.63 0 0 1 2.268-.6c.788 0 1.565.206 2.267.6l.775.502a5.31 5.31 0 0 1 1.609 1.86c.395.752.623 1.597.664 2.465v183.6a5.95 5.95 0 0 1-.668 2.462 5.341 5.341 0 0 1-1.605 1.862L64.813 315.922c-.703.394-1.48.6-2.268.6a4.628 4.628 0 0 1-2.267-.6Z" fill="#F5F5F5"/><path d="m67.849 131.306-9.955-6.345a5.574 5.574 0 0 0-.664 2.467v183.641c.045.867.274 1.71.669 2.462a5.352 5.352 0 0 0 1.605 1.863l.774.488c.702.394 1.48.599 2.267.599.789 0 1.566-.205 2.268-.599l3.036-1.939V131.306Z" fill="#E0E0E0"/><path d="M62.552 314.444v-183.64a5.947 5.947 0 0 1 .662-2.461c.393-.751.94-1.39 1.6-1.864l170.71-108.733c1.229-.787 2.273-.15 2.273 1.45v183.641a5.95 5.95 0 0 1-.668 2.462 5.353 5.353 0 0 1-1.605 1.863l-170.71 108.76c-1.254.759-2.262.122-2.262-1.478Z" fill="#EBEBEB"/><path d="m75.997 132.892 148.343-94.47c1.561-1.004 2.826-.19 2.826 1.802v141.598a7.401 7.401 0 0 1-.823 3.086 6.658 6.658 0 0 1-2.003 2.337L75.997 281.702c-1.56 1.004-2.827.19-2.827-1.803V138.315a7.448 7.448 0 0 1 .826-3.084 6.677 6.677 0 0 1 2.001-2.339Z" fill="#fff"/><path d="M100.516 125.828c9.242-5.884 16.727-1.111 16.727 10.657s-7.485 26.071-16.727 31.956c-9.242 5.884-16.727 1.125-16.727-10.643s7.485-26.086 16.727-31.97ZM116.014 168.508a8.19 8.19 0 0 1 2.362-2.924 7.206 7.206 0 0 1 3.308-1.422 6.936 6.936 0 0 1 3.533.388 7.564 7.564 0 0 1 2.989 2.114l19.271 22.14 36.625-99.12c.537-1.454 1.433-2.712 2.587-3.632a7.178 7.178 0 0 1 3.936-1.57 7.023 7.023 0 0 1 4.095.963c1.256.738 2.299 1.849 3.011 3.208l29.411 56.183v36.986a7.431 7.431 0 0 1-.823 3.086 6.642 6.642 0 0 1-2.004 2.337L75.997 281.702c-1.56 1.004-2.827.19-2.827-1.803v-23.455l42.844-87.936Z" fill="#FFB900"/><path d="m92.171 336.259-.787-.501a5.34 5.34 0 0 1-1.599-1.865 5.94 5.94 0 0 1-.662-2.46V147.724a5.94 5.94 0 0 1 .662-2.46c.393-.752.94-1.39 1.6-1.864L262.106 34.68a4.552 4.552 0 0 1 2.262-.608c.787 0 1.562.208 2.261.608l.787.488a5.337 5.337 0 0 1 1.599 1.864c.393.751.62 1.594.662 2.46v183.641a5.837 5.837 0 0 1-.653 2.467 5.233 5.233 0 0 1-1.608 1.858L96.669 336.259a4.547 4.547 0 0 1-2.249.601 4.548 4.548 0 0 1-2.249-.601Z" fill="#F5F5F5"/><path d="m99.717 151.616-9.955-6.345a5.555 5.555 0 0 0-.663 2.453v183.641c.042.866.269 1.709.661 2.461.393.751.941 1.39 1.6 1.864l.787.501c.698.4 1.474.608 2.26.608.788 0 1.563-.208 2.262-.608l3.048-1.938V151.616Z" fill="#E0E0E0"/><path d="M94.408 334.754v-183.64c.043-.866.27-1.709.663-2.46.393-.751.94-1.39 1.598-1.865L267.392 38.055c1.229-.8 2.262-.149 2.262 1.438v183.64a5.858 5.858 0 0 1-.653 2.466 5.239 5.239 0 0 1-1.609 1.859L96.669 336.259c-1.241.732-2.261.081-2.261-1.505Z" fill="#EBEBEB"/><path d="m107.866 153.229 148.342-94.484c1.561-.99 2.827-.176 2.827 1.803V202.12a7.447 7.447 0 0 1-.824 3.085 6.69 6.69 0 0 1-2.003 2.338l-148.342 94.484c-1.574.99-2.839.19-2.839-1.803V158.652a7.426 7.426 0 0 1 .828-3.088 6.655 6.655 0 0 1 2.011-2.335Z" fill="#fff"/><path d="M132.385 146.138c9.229-5.884 16.726-1.112 16.726 10.656s-7.497 26.072-16.726 31.956c-9.23 5.884-16.727 1.112-16.727-10.657 0-11.768 7.484-26.071 16.727-31.955ZM147.882 188.818a8.182 8.182 0 0 1 2.359-2.924 7.203 7.203 0 0 1 3.305-1.423 6.93 6.93 0 0 1 3.531.389 7.558 7.558 0 0 1 2.985 2.114l19.369 22.14 36.613-99.121c.536-1.457 1.432-2.718 2.587-3.64a7.184 7.184 0 0 1 3.942-1.576 7.022 7.022 0 0 1 4.1.968c1.258.74 2.302 1.855 3.013 3.218l29.398 56.183v36.972a7.447 7.447 0 0 1-.824 3.086 6.69 6.69 0 0 1-2.003 2.338l-148.342 94.484c-1.573.99-2.839.19-2.839-1.803v-23.455l42.806-87.95Z" fill="#11B5E4"/><path d="m124.003 356.473-.775-.488a5.34 5.34 0 0 1-1.599-1.864 5.943 5.943 0 0 1-.662-2.461V168.02a5.91 5.91 0 0 1 .665-2.465 5.288 5.288 0 0 1 1.609-1.86l170.71-108.734a4.63 4.63 0 0 1 2.268-.6c.788 0 1.565.206 2.267.6l.775.502a5.31 5.31 0 0 1 1.609 1.86c.395.752.623 1.597.664 2.465v183.64a5.946 5.946 0 0 1-.668 2.462 5.344 5.344 0 0 1-1.605 1.863L128.55 356.473a4.63 4.63 0 0 1-2.274.603 4.63 4.63 0 0 1-2.273-.603Z" fill="#F5F5F5"/><path d="m131.586 171.898-9.918-6.345a5.572 5.572 0 0 0-.664 2.468v183.64c.042.866.269 1.709.662 2.461a5.34 5.34 0 0 0 1.599 1.864l.775.488c.702.394 1.479.6 2.267.6.788 0 1.565-.206 2.268-.6l3.048-1.939-.037-182.637Z" fill="#E0E0E0"/><path d="M126.276 355.037V171.396a5.95 5.95 0 0 1 .662-2.46 5.324 5.324 0 0 1 1.6-1.864l170.71-108.748c1.229-.786 2.274-.149 2.274 1.451V243.43a5.947 5.947 0 0 1-.669 2.462 5.334 5.334 0 0 1-1.605 1.863l-170.71 108.72c-1.254.8-2.262.122-2.262-1.437Z" fill="#EBEBEB"/><path d="m139.722 173.471 148.342-94.47c1.561-1.004 2.827-.19 2.827 1.802v141.571a7.443 7.443 0 0 1-.824 3.085 6.69 6.69 0 0 1-2.003 2.338l-148.342 94.498c-1.561 1.003-2.827.189-2.827-1.804V178.88a7.448 7.448 0 0 1 .828-3.076 6.681 6.681 0 0 1 1.999-2.333Z" fill="#fff"/><path d="M164.241 166.42c9.242-5.884 16.727-1.111 16.727 10.657s-7.485 26.072-16.727 31.956c-9.243 5.884-16.764 1.138-16.764-10.643 0-11.782 7.521-26.085 16.764-31.97ZM179.739 209.1a8.179 8.179 0 0 1 2.362-2.924 7.201 7.201 0 0 1 3.308-1.422 6.937 6.937 0 0 1 3.533.388 7.568 7.568 0 0 1 2.988 2.114l19.308 22.14 36.625-99.121c.538-1.453 1.434-2.711 2.587-3.631a7.18 7.18 0 0 1 3.937-1.571 7.026 7.026 0 0 1 4.094.964c1.256.738 2.3 1.849 3.012 3.208l29.41 56.183v36.945a7.475 7.475 0 0 1-.833 3.085 6.71 6.71 0 0 1-2.006 2.339l-148.342 94.497c-1.561 1.004-2.827.19-2.827-1.803v-23.455l42.844-87.936Z" fill="#F03E3D"/><path d="m152.823 341.004 15.928-10.141v20.296l-15.928-10.155Z" fill="#263238"/><path d="M168.751 199.176v148.377c0 1.993-1.229 2.793-2.827 1.803l-13.101-8.352-5.346 3.39 23.72 15.103a5.754 5.754 0 0 0 2.833.753c.985 0 1.956-.258 2.833-.753L341.17 254.912a6.668 6.668 0 0 0 2.008-2.336c.493-.943.778-2 .831-3.087V94.334a6.38 6.38 0 0 0-.667-3.053 5.654 5.654 0 0 0-1.996-2.239 4.95 4.95 0 0 0-2.755-.788 4.975 4.975 0 0 0-2.73.887L171.59 193.767a6.656 6.656 0 0 0-2.008 2.329 7.42 7.42 0 0 0-.831 3.08Z" fill="#263238"/><path d="M179.431 202.335 344.12 97.493v-3.16a6.38 6.38 0 0 0-.668-3.052 5.652 5.652 0 0 0-1.995-2.239 4.952 4.952 0 0 0-2.755-.788 4.98 4.98 0 0 0-2.731.887L171.59 193.767a6.096 6.096 0 0 0-2.003 2.332l9.844 6.236Z" fill="#455A64"/><path d="M341.17 92.53 176.9 197.156a6.668 6.668 0 0 0-2.008 2.336 7.44 7.44 0 0 0-.831 3.087v155.114c0 1.993 1.229 2.807 2.839 1.804l164.27-104.585a6.671 6.671 0 0 0 2.008-2.337c.493-.942.778-2 .831-3.086V94.333c0-1.993-1.278-2.806-2.839-1.803Z" fill="#37474F"/><path d="M217.801 293.24a1.625 1.625 0 0 1-.897-.257 2.35 2.35 0 0 1-.761-.958 2.622 2.622 0 0 1-.21-1.252v-75.409a6.684 6.684 0 0 1 .746-2.797 5.994 5.994 0 0 1 1.823-2.111l80.451-51.234a1.877 1.877 0 0 1 1.085-.464c.395-.031.79.069 1.133.288.343.219.618.547.791.941.172.394.233.836.175 1.268v75.409a6.684 6.684 0 0 1-.746 2.797 5.994 5.994 0 0 1-1.823 2.111l-80.452 51.302a2.453 2.453 0 0 1-1.315.366Zm82.468-133.097a1.273 1.273 0 0 0-.701.258l-80.452 51.221a4.73 4.73 0 0 0-1.372 1.62 5.257 5.257 0 0 0-.582 2.122v75.409a1.28 1.28 0 0 0 .061.564c.062.18.164.34.296.466.164.066.34.084.512.053a.968.968 0 0 0 .471-.229l80.451-51.235a4.675 4.675 0 0 0 1.374-1.611 5.217 5.217 0 0 0 .581-2.117v-75.409a1.258 1.258 0 0 0-.06-.565 1.151 1.151 0 0 0-.297-.465.501.501 0 0 0-.282-.082Z" fill="#FAFAFA"/><path d="M230.767 228.298a3.699 3.699 0 0 1-2.003-.569 5.576 5.576 0 0 1-1.754-2.284 6.2 6.2 0 0 1-.458-2.95 17.9 17.9 0 0 1 1.999-7.396c1.183-2.259 2.83-4.179 4.81-5.606a4.338 4.338 0 0 1 2.521-1.112 4.221 4.221 0 0 1 2.648.667 4.882 4.882 0 0 1 1.835 2.209c.393.925.523 1.96.37 2.968a17.878 17.878 0 0 1-1.995 7.399c-1.183 2.259-2.832 4.179-4.814 5.603a6.137 6.137 0 0 1-3.159 1.071Zm5.801-18.52a4.97 4.97 0 0 0-2.593.895c-1.793 1.301-3.284 3.049-4.351 5.102a16.255 16.255 0 0 0-1.794 6.72 4.076 4.076 0 0 0 .192 2.319c.288.73.781 1.339 1.406 1.737a3.11 3.11 0 0 0 2.066.473 3.243 3.243 0 0 0 1.916-.976c1.792-1.302 3.282-3.05 4.35-5.104a16.278 16.278 0 0 0 1.795-6.719 4.808 4.808 0 0 0-.3-2.272 4.333 4.333 0 0 0-1.298-1.795 2.439 2.439 0 0 0-1.389-.38ZM216.548 287.573a.618.618 0 0 1-.246-.122.619.619 0 0 1-.187-.163.68.68 0 0 1-.116-.231.733.733 0 0 1 .045-.515l23.818-51.587a5.5 5.5 0 0 1 1.517-1.976 4.833 4.833 0 0 1 2.161-1.009 4.614 4.614 0 0 1 2.341.174 4.974 4.974 0 0 1 2.019 1.32l23.548 25a.681.681 0 0 1 .181.475.722.722 0 0 1-.047.257.67.67 0 0 1-.334.366.57.57 0 0 1-.672-.149l-23.548-24.932a3.786 3.786 0 0 0-1.529-.992 3.501 3.501 0 0 0-1.769-.13 3.66 3.66 0 0 0-1.634.76c-.484.39-.878.899-1.152 1.487l-23.819 51.601a.658.658 0 0 1-.241.275.584.584 0 0 1-.336.091Z" fill="#FAFAFA"/><path d="M259.035 246.981a.538.538 0 0 1-.246 0 .656.656 0 0 1-.323-.369.745.745 0 0 1 .003-.512l18.436-47.019a5.39 5.39 0 0 1 1.518-2.169 4.688 4.688 0 0 1 2.285-1.073 4.494 4.494 0 0 1 2.47.296c.786.33 1.483.878 2.023 1.59l16.763 22.357a.721.721 0 0 1 .078.745.59.59 0 0 1-.547.35.59.59 0 0 1-.391-.159l-16.764-22.357a3.723 3.723 0 0 0-1.511-1.205 3.362 3.362 0 0 0-1.853-.235 3.513 3.513 0 0 0-1.719.794 4.035 4.035 0 0 0-1.148 1.622l-18.435 47.005a.64.64 0 0 1-.271.281.562.562 0 0 1-.368.058Z" fill="#FAFAFA"/><path d="M319.367 126.926c-3.797 0-6.341-2.508-6.341-6.236l.331-23.51c0-6.412 0-16.147 6.49-20.336a8.27 8.27 0 0 1 4.473-1.517 8.196 8.196 0 0 1 4.55 1.213c1.39.847 2.548 2.091 3.352 3.602a10.547 10.547 0 0 1 1.218 4.986c0 1.884-.062 4.19-.16 6.86a2.163 2.163 0 0 1-.162.777c-.1.244-.244.464-.423.646a1.805 1.805 0 0 1-.617.414 1.708 1.708 0 0 1-1.415-.075 1.868 1.868 0 0 1-.579-.472 2.068 2.068 0 0 1-.372-.68 2.242 2.242 0 0 1-.107-.786c.086-2.563.148-4.881.148-6.684a6.146 6.146 0 0 0-.723-2.954 5.415 5.415 0 0 0-2.004-2.116 4.767 4.767 0 0 0-2.707-.665 4.848 4.848 0 0 0-2.629.976c-4.289 2.712-4.645 9.49-4.645 16.784l-.332 23.537c0 1.762 1.438 2.142 2.654 2.142 2.006-.053 3.914-.963 5.322-2.539 1.408-1.577 2.206-3.695 2.225-5.908l-.136-9.287c0-.539.195-1.056.54-1.438a1.763 1.763 0 0 1 1.304-.595c.489 0 .958.214 1.303.595.346.382.54.899.54 1.438l.136 9.301c.009 3.302-1.167 6.475-3.272 8.822-2.106 2.348-4.968 3.68-7.962 3.705Z" fill="#BA68C8"/><path d="m347.045 271.425-128.224 81.672a5.353 5.353 0 0 0-1.605 1.863 5.95 5.95 0 0 0-.668 2.462v.99c.043.869.272 1.715.667 2.469a5.36 5.36 0 0 0 1.606 1.87l106.986 68.141c.703.394 1.48.6 2.268.6.788 0 1.565-.206 2.267-.6l128.224-81.672a5.353 5.353 0 0 0 1.605-1.863 5.962 5.962 0 0 0 .669-2.462v-1.003a5.958 5.958 0 0 0-.669-2.462 5.336 5.336 0 0 0-1.605-1.863L351.58 271.425a4.63 4.63 0 0 0-2.268-.599c-.788 0-1.565.205-2.267.599Z" fill="#455A64"/><path d="M216.548 357.422v.99c.043.869.272 1.715.667 2.469a5.357 5.357 0 0 0 1.606 1.869l106.986 68.142a4.34 4.34 0 0 0 2.262.596v-12.69l-106.212-67.626-3.036 1.939a5.346 5.346 0 0 0-1.602 1.857 5.94 5.94 0 0 0-.671 2.454Z" fill="#263238"/><path d="m218.821 353.097 128.224-81.672a4.625 4.625 0 0 1 2.267-.6c.788 0 1.565.206 2.268.6l106.986 68.141c.276.099.517.293.688.552.17.259.262.572.262.892 0 .321-.092.633-.262.892-.171.26-.412.453-.688.552l-128.224 81.672c-.702.394-1.479.6-2.267.6a4.632 4.632 0 0 1-2.268-.6l-106.986-68.141a1.396 1.396 0 0 1-.687-.552 1.624 1.624 0 0 1-.263-.892c0-.321.092-.633.263-.892.17-.26.411-.453.687-.552Z" fill="#37474F"/><path d="m234.737 355.985 83.094 52.875a4.553 4.553 0 0 0 2.261.608c.787 0 1.563-.209 2.262-.608l112.307-71.517c.277-.099.517-.293.688-.552.171-.259.263-.572.263-.892 0-.321-.092-.633-.263-.892a1.387 1.387 0 0 0-.688-.552l-83.093-52.875a4.695 4.695 0 0 0-2.268-.59c-.787 0-1.563.202-2.268.59l-112.295 71.517a1.391 1.391 0 0 0-.688.552 1.63 1.63 0 0 0-.262.892c0 .32.092.633.262.892.171.259.412.452.688.552Z" fill="#fff"/><path d="M260.362 344.799c5.863-3.728 15.375-3.728 21.238 0 5.862 3.729 5.874 9.789 0 13.558-5.875 3.769-15.375 3.729-21.238 0-5.862-3.728-5.862-9.816 0-13.558ZM434.674 334.496l-24.286-15.47-73.741-7.579a4.83 4.83 0 0 0-2.623.476 5.39 5.39 0 0 0-2.077 1.83 6.14 6.14 0 0 0-1.001 2.716 6.354 6.354 0 0 0 .33 2.91l12.733 35.155-40.558-2.549a4.805 4.805 0 0 0-2.314.428 5.275 5.275 0 0 0-1.914 1.498 5.971 5.971 0 0 0-1.131 2.268 6.362 6.362 0 0 0-.122 2.585l6.243 41.473 13.667 8.705a4.552 4.552 0 0 0 2.261.607c.788 0 1.563-.208 2.262-.607l112.308-71.518c.289-.092.544-.287.723-.555.18-.267.275-.592.27-.925a1.62 1.62 0 0 0-.293-.916 1.368 1.368 0 0 0-.737-.532Z" fill="#02897A"/><path d="M434.281 236.162v-54.123l63.724-40.578v54.109l-63.724 40.592Z" fill="#EBEBEB"/><path d="m434.281 182.039-79.665-50.733v54.122l79.665 50.734v-54.123Z" fill="#E6E6E6"/><path d="m434.281 182.039 65.617-41.799-81.558-51.953-65.605 41.812 81.546 51.94Z" fill="#F0F0F0"/><path d="M434.281 182.039v13.53l65.617-41.785V140.24l-65.617 41.799Z" fill="#EBEBEB"/><path d="m434.281 195.569 63.724-40.578v2.969l-63.724 40.592v-2.983Z" fill="#E6E6E6"/><path d="m352.735 130.099 81.546 51.94v13.53l-81.546-51.939v-13.531Z" fill="#EBEBEB"/><path d="m434.281 195.57-79.665-50.733v2.982l79.665 50.734v-2.983Z" fill="#E0E0E0" style="mix-blend-mode:multiply" opacity=".5"/><path d="m455.26 190.268 21.766-13.869c.934-.597 1.696-.109 1.696 1.084v14.195a4.477 4.477 0 0 1-.495 1.851 4.012 4.012 0 0 1-1.201 1.403l-21.766 13.883c-.946.597-1.696.122-1.696-1.071v-14.235a4.38 4.38 0 0 1 .49-1.848 3.928 3.928 0 0 1 1.206-1.393Z" fill="#E0E0E0"/><path d="m456.649 191.882 18.976-12.093c.627-.394 1.143-.068 1.143.718v10.684a2.923 2.923 0 0 1-.331 1.239 2.605 2.605 0 0 1-.812.93l-18.976 12.094c-.627.393-1.131 0-1.131-.733v-10.683c.019-.433.131-.855.328-1.23.196-.375.472-.692.803-.926Z" fill="#fff"/><path d="M434.281 175.246v-54.122l63.724-40.592v54.122l-63.724 40.592Z" fill="#EBEBEB"/><path d="m434.281 121.124-79.665-50.733v54.123l79.665 50.733v-54.123Z" fill="#E6E6E6"/><path d="m434.281 121.124 65.617-41.813-81.558-51.94-65.605 41.8 81.546 51.953Z" fill="#F5F5F5"/><path d="M434.281 121.124v13.531l65.617-41.785V79.312l-65.617 41.812Z" fill="#EBEBEB"/><path d="m434.281 134.655 63.724-40.592v2.983l-63.724 40.578v-2.969Z" fill="#E6E6E6"/><path d="m352.735 69.17 81.546 51.954v13.531l-81.546-51.94V69.17Z" fill="#EBEBEB"/><path d="m434.281 134.654-79.665-50.733v2.97l79.665 50.732v-2.969Z" fill="#E0E0E0" style="mix-blend-mode:multiply" opacity=".5"/><path d="m455.26 129.353 21.766-13.869c.934-.597 1.696-.109 1.696 1.084v14.195a4.523 4.523 0 0 1-.499 1.849 4.047 4.047 0 0 1-1.197 1.405l-21.766 13.856c-.946.597-1.696.109-1.696-1.084v-14.195a4.383 4.383 0 0 1 .49-1.848 3.928 3.928 0 0 1 1.206-1.393Z" fill="#E0E0E0"/><path d="m456.649 130.953 18.976-12.08c.627-.393 1.143-.081 1.143.719v10.588a3.01 3.01 0 0 1-.338 1.234 2.719 2.719 0 0 1-.805.936l-18.976 12.08c-.627.406-1.131.081-1.131-.719v-10.643c.024-.426.139-.839.336-1.207.196-.367.469-.678.795-.908Z" fill="#fff"/><path d="m494.564 136.837-60.283 38.41-76.224-48.578-1.868 1.22 78.092 49.567 62.164-39.426-1.881-1.193Z" fill="#E0E0E0"/></svg>