<svg width="338" height="312" fill="none" xmlns="http://www.w3.org/2000/svg"><path d="M49.498 285.556c66.001 34.242 173.003 34.242 239.004 0s65.993-89.756 0-123.998c-65.994-34.242-173.003-34.242-239.004 0s-65.993 89.756 0 123.998Z" fill="#F5F5F5"/><path d="M289.408 201.159c12.864 0 23.292-4.935 23.292-11.023s-10.428-11.023-23.292-11.023-23.293 4.935-23.293 11.023 10.429 11.023 23.293 11.023ZM49.088 265.645c11.794 0 21.355-4.525 21.355-10.107 0-5.582-9.56-10.108-21.355-10.108-11.793 0-21.354 4.526-21.354 10.108 0 5.582 9.56 10.107 21.354 10.107ZM207.637 285.079c12.272 0 22.221-4.711 22.221-10.523 0-5.811-9.949-10.522-22.221-10.522-12.273 0-22.221 4.711-22.221 10.522 0 5.812 9.948 10.523 22.221 10.523ZM97.343 234.728c12.272 0 22.221-4.711 22.221-10.522s-9.949-10.522-22.221-10.522c-12.273 0-22.221 4.711-22.221 10.522s9.948 10.522 22.22 10.522Z" fill="#E6E6E6"/><path d="M228.109 164.406c.543-6.486 15.51-30.816 20.086-34.587 4.577-3.771 12.659-13.299 9.177-18.713-3.482-5.414-13.714-3.004-23.324 13.871-7.451 13.088-9.767 42.034-9.767 42.034l3.828-2.605Z" fill="#02897A"/><path d="M226.061 163.795h-.063a.373.373 0 0 1-.144-.052.38.38 0 0 1-.179-.394c4.23-27.162 13.218-44.107 27.475-51.805a.397.397 0 0 1 .582.303.392.392 0 0 1-.204.385c-14.029 7.573-22.883 24.338-27.081 51.242a.39.39 0 0 1-.386.321Z" fill="#fff"/><path d="M229.613 132.941s12.013-20.622 21.961-30.065c5.514-5.234 8.901-8.606 8.602-12.564-.22-3.004-2.733-4.608-8.137-3.286-10.768 2.629-16.541 13.464-20.259 25.598-2.639 8.543-2.167 20.317-2.167 20.317Z" fill="#37474F"/><path opacity=".2" d="M229.613 132.941s12.013-20.622 21.961-30.065c5.514-5.234 8.901-8.606 8.602-12.564-.22-3.004-2.733-4.608-8.137-3.286-10.768 2.629-16.541 13.464-20.259 25.598-2.639 8.543-2.167 20.317-2.167 20.317Z" fill="#00FFE3"/><path d="M231.008 129.553h-.055a.398.398 0 0 1-.331-.454c4.277-26.802 20.535-36.894 25.419-39.35a.395.395 0 0 1 .553.47.382.382 0 0 1-.199.226c-4.797 2.417-20.771 12.337-24.993 38.78a.396.396 0 0 1-.394.328Z" fill="#fff"/><path d="m296.899 72.068-2.6-4.85 2.088-5.993v-3.669l-6.396 3.67v3.668l2.749 4.741a.384.384 0 0 0 .189.164l3.97 2.27Z" fill="#11B5E4"/><path opacity=".1" d="m296.899 72.068-2.6-4.85 2.088-5.993v-3.669l-6.396 3.67v3.668l2.749 4.741a.384.384 0 0 0 .189.164l3.97 2.27Z" fill="#000"/><path d="m282.059 49.295 17.612-10.17a4.297 4.297 0 0 1 3.837 0l1.575.9a4.175 4.175 0 0 1 1.922 3.301V57.5a4.199 4.199 0 0 1-.564 1.88 4.229 4.229 0 0 1-1.358 1.422l-17.629 10.17a4.293 4.293 0 0 1-3.836 0l-1.575-.9a4.18 4.18 0 0 1-1.914-3.301V52.58c.04-.659.236-1.3.571-1.87a4.237 4.237 0 0 1 1.359-1.415Z" fill="#11B5E4"/><path opacity=".3" d="m282.059 49.295 17.612-10.17a4.297 4.297 0 0 1 3.837 0l1.575.9a4.175 4.175 0 0 1 1.922 3.301V57.5a4.199 4.199 0 0 1-.564 1.88 4.229 4.229 0 0 1-1.358 1.422l-17.629 10.17a4.293 4.293 0 0 1-3.836 0l-1.575-.9a4.18 4.18 0 0 1-1.914-3.301V52.58c.04-.659.236-1.3.571-1.87a4.237 4.237 0 0 1 1.359-1.415Z" fill="#fff"/><path d="M287.462 70.957c-1.063.603-1.922.118-1.922-1.103V55.68c.037-.662.23-1.306.564-1.88a4.229 4.229 0 0 1 1.358-1.422l17.629-10.17c1.063-.61 1.922-.117 1.922 1.103v14.176a4.2 4.2 0 0 1-.564 1.879 4.23 4.23 0 0 1-1.358 1.422" fill="#11B5E4"/><path d="M280.145 66.756a4.18 4.18 0 0 0 1.914 3.302l1.575.9a4.3 4.3 0 0 0 3.505.148c-.898.344-1.575-.164-1.575-1.252V55.68c.025-.664.221-1.31.567-1.878l-5.404-3.13a3.898 3.898 0 0 0-.559 1.878l-.023 14.207Z" fill="#11B5E4"/><path opacity=".1" d="M280.145 66.756a4.18 4.18 0 0 0 1.914 3.302l1.575.9a4.3 4.3 0 0 0 3.505.148c-.898.344-1.575-.164-1.575-1.252V55.68c.025-.664.221-1.31.567-1.878l-5.404-3.13a3.898 3.898 0 0 0-.559 1.878l-.023 14.207Z" fill="#000"/><path d="m294 67.194 2.749 4.733a.42.42 0 0 0 .611.114.407.407 0 0 0 .137-.184l2.907-8.332v-3.669L294 63.526v3.668Z" fill="#11B5E4"/><path d="m296.284 62.352-1.969-.517c-1.875-.492-4.112-1.564-4.112-3.966.095-.979.42-1.921.95-2.752a6.27 6.27 0 0 1 2.099-2.028 1.92 1.92 0 0 1 2.704.488c.191.283.301.612.321.952.196-1.565 1.473-4.022 3.024-4.914 1.686-.962 3.049-.39 3.049 1.283 0 2.394-2.23 6.04-4.104 8.684l-1.962 2.77Z" fill="#fff"/><path d="M35.871 109.299 53.5 99.168a4.246 4.246 0 0 1 3.836 0l1.575.892a4.222 4.222 0 0 1 1.914 3.301v14.176a4.207 4.207 0 0 1-1.914 3.301l-17.605 10.131a4.26 4.26 0 0 1-3.844 0l-1.575-.892a4.226 4.226 0 0 1-1.374-1.434 4.192 4.192 0 0 1-.564-1.898V112.6a4.171 4.171 0 0 1 .561-1.88c.334-.574.8-1.061 1.361-1.421Z" fill="#FF7800"/><path opacity=".3" d="M35.871 109.299 53.5 99.168a4.246 4.246 0 0 1 3.836 0l1.575.892a4.222 4.222 0 0 1 1.914 3.301v14.176a4.207 4.207 0 0 1-1.914 3.301l-17.605 10.131a4.26 4.26 0 0 1-3.844 0l-1.575-.892a4.226 4.226 0 0 1-1.374-1.434 4.192 4.192 0 0 1-.564-1.898V112.6a4.171 4.171 0 0 1 .561-1.88c.334-.574.8-1.061 1.361-1.421Z" fill="#fff"/><path d="m50.703 132.088-2.6-4.858 2.096-5.993v-3.669l-6.404 3.7v3.669l2.757 4.694a.4.4 0 0 0 .181.165l3.97 2.292Z" fill="#FF7800"/><path opacity=".1" d="m50.703 132.088-2.6-4.858 2.096-5.993v-3.669l-6.404 3.7v3.669l2.757 4.694a.4.4 0 0 0 .181.165l3.97 2.292Z" fill="#000"/><path d="M41.306 130.969c-1.063.61-1.922.117-1.922-1.103V115.69a4.18 4.18 0 0 1 .564-1.875c.334-.572.8-1.058 1.358-1.418l17.637-10.17c1.055-.603 1.914-.11 1.914 1.103v14.175a4.233 4.233 0 0 1-1.914 3.302" fill="#FF7800"/><path d="M33.949 126.745c.037.661.23 1.305.564 1.878a4.23 4.23 0 0 0 1.358 1.423l1.575.892a4.349 4.349 0 0 0 3.514.156c-.906.337-1.576-.172-1.576-1.259V115.69a3.89 3.89 0 0 1 .56-1.877l-5.396-3.09a3.889 3.889 0 0 0-.568 1.877l-.031 14.145Z" fill="#FF7800"/><path opacity=".1" d="M33.949 126.745c.037.661.23 1.305.564 1.878a4.23 4.23 0 0 0 1.358 1.423l1.575.892a4.349 4.349 0 0 0 3.514.156c-.906.337-1.576-.172-1.576-1.259V115.69a3.89 3.89 0 0 1 .56-1.877l-5.396-3.09a3.889 3.889 0 0 0-.568 1.877l-.031 14.145Z" fill="#000"/><path d="m47.813 127.206 2.749 4.694a.406.406 0 0 0 .393.2.408.408 0 0 0 .347-.27l2.907-8.332v-3.669l-6.397 3.669v3.708Z" fill="#FF7800"/><path d="M43.433 118.741c-.531.34-.973.802-1.287 1.346a3.894 3.894 0 0 0-.517 1.784c0 1.142.788 1.564 1.804 1.032a3.957 3.957 0 0 0 1.804-3.129c.008-1.142-.78-1.635-1.804-1.033ZM50.09 114.916a3.942 3.942 0 0 0-1.812 3.129c0 1.142.787 1.604 1.811 1.033a3.991 3.991 0 0 0 1.28-1.35 3.956 3.956 0 0 0 .524-1.779c0-1.143-.811-1.604-1.804-1.033ZM56.737 111.098a3.99 3.99 0 0 0-1.28 1.35 3.956 3.956 0 0 0-.524 1.779c0 1.143.788 1.565 1.804 1.033.532-.34.973-.801 1.287-1.346a3.887 3.887 0 0 0 .517-1.783c0-1.15-.803-1.612-1.804-1.033Z" fill="#fff"/><path d="m222.8 6.604-76.58 43.888a7.506 7.506 0 0 0-2.411 2.529 7.456 7.456 0 0 0-1 3.338v168.348c0 2.159 1.528 3.035 3.411 1.956l76.58-43.889a7.517 7.517 0 0 0 2.411-2.529 7.455 7.455 0 0 0 1-3.338V8.559c0-2.159-1.528-3.035-3.411-1.955Z" fill="#37474F"/><path d="M146.22 50.492 222.8 6.604c1.686-.963 3.08-.36 3.356 1.322a7.54 7.54 0 0 0-1.114-2.974 7.59 7.59 0 0 0-2.242-2.26l-2.78-1.565a7.582 7.582 0 0 0-6.822 0l-76.58 43.865a6.92 6.92 0 0 0-2.41 2.527l9.602 5.476a6.92 6.92 0 0 1 2.41-2.503Z" fill="#455A64"/><path d="M133.207 219.199a7.435 7.435 0 0 0 .998 3.34 7.51 7.51 0 0 0 2.413 2.528l2.78 1.564a7.643 7.643 0 0 0 6.239.274c-1.575.603-2.828-.297-2.828-2.229V56.336a6.86 6.86 0 0 1 1-3.34l-9.602-5.477a6.895 6.895 0 0 0-1 3.34V219.2Z" fill="#263238"/><path d="m148.055 71.458 72.91-41.784c1.126-.65 2.048-.125 2.048 1.174v127.448a4.498 4.498 0 0 1-.603 2.002 4.531 4.531 0 0 1-1.445 1.518l-72.91 41.776c-1.126.649-2.048.125-2.048-1.173V74.979a4.461 4.461 0 0 1 .599-2.005 4.501 4.501 0 0 1 1.449-1.516Z" fill="#FAFAFA"/><path d="M183.738 35.08a2.632 2.632 0 0 0-1.197 2.065c0 .783.535 1.072 1.197.689.349-.226.64-.531.848-.89.208-.36.328-.762.349-1.175 0-.76-.535-1.064-1.197-.689ZM172.403 47.19a5.25 5.25 0 0 0-2.363 4.13c0 1.519 1.071 2.137 2.363 1.378a5.28 5.28 0 0 0 1.699-1.78 5.222 5.222 0 0 0 .703-2.35c0-1.518-1.079-2.136-2.402-1.377ZM178.271 46.674c0 1.017.788 1.4 1.71.86l15.754-9.05a3.622 3.622 0 0 0 1.701-2.816c0-1.01-.788-1.394-1.701-.854l-15.754 9.051a3.615 3.615 0 0 0-1.71 2.809Z" fill="#263238"/><path d="M138.516 76.496a4.176 4.176 0 0 1 1.922 3.301c0 1.213-.858 1.706-1.922 1.104a4.22 4.22 0 0 1-1.914-3.31c.016-1.212.859-1.697 1.914-1.095ZM138.516 91.18a4.229 4.229 0 0 1 1.358 1.423c.334.573.527 1.217.564 1.879 0 1.22-.859 1.713-1.922 1.103a4.244 4.244 0 0 1-1.336-1.41 4.2 4.2 0 0 1-.562-1.853c0-1.251.843-1.744 1.898-1.142Z" fill="#37474F"/><path d="M137.925 76.786a4.232 4.232 0 0 1 1.359 1.422c.334.574.527 1.217.563 1.879 0 1.22-.858 1.713-1.922 1.103a4.245 4.245 0 0 1-1.356-1.424 4.21 4.21 0 0 1-.566-1.877c0-1.213.867-1.706 1.922-1.103ZM137.925 91.478a4.232 4.232 0 0 1 1.359 1.422c.334.574.527 1.217.563 1.879 0 1.22-.858 1.713-1.922 1.103a4.246 4.246 0 0 1-1.356-1.423 4.21 4.21 0 0 1-.566-1.878c0-1.22.867-1.714 1.922-1.103Z" fill="#455A64"/><path d="M184.51 188.329a10.428 10.428 0 0 0-3.344 3.511 10.34 10.34 0 0 0-1.382 4.633c0 3.004 2.119 4.217 4.726 2.722a10.428 10.428 0 0 0 3.343-3.515 10.34 10.34 0 0 0 1.383-4.636c.008-3.004-2.111-4.217-4.726-2.715Z" fill="#263238"/><path d="M163.171 201.777c-.669 0-.74-.782-.74-1.064V73.273a4.123 4.123 0 0 1 .55-1.807 4.153 4.153 0 0 1 1.301-1.377l72.909-41.784c.218-.129.464-.204.717-.219.67 0 .74.736.74 1.056V156.59a4.123 4.123 0 0 1-1.851 3.176l-72.909 41.784a1.482 1.482 0 0 1-.717.227Z" fill="#fff" stroke="#141414" stroke-miterlimit="10"/><path d="M237.908 28.477c.299 0 .347.415.347.665V156.59a3.727 3.727 0 0 1-1.654 2.84l-72.91 41.784a1.158 1.158 0 0 1-.52.172c-.299 0-.346-.423-.346-.673V73.273a3.728 3.728 0 0 1 1.654-2.84l72.909-41.784a1.07 1.07 0 0 1 .52-.172Zm0-.782c-.323.01-.638.105-.914.274l-72.909 41.784a4.493 4.493 0 0 0-1.449 1.516 4.461 4.461 0 0 0-.599 2.004v127.44c0 .923.465 1.455 1.134 1.455.324-.014.639-.111.914-.281l72.909-41.776a4.472 4.472 0 0 0 2.048-3.521V29.142c0-.915-.464-1.447-1.134-1.447Z" fill="#37474F" stroke="#141414" stroke-miterlimit="10"/><path d="M239.019 29.142c0-1.298-.914-1.822-2.048-1.173l-72.91 41.784a4.501 4.501 0 0 0-1.449 1.516 4.461 4.461 0 0 0-.599 2.004v10.444l77.006-44.13V29.141Z" fill="#37474F"/><path opacity=".1" d="M239.019 29.142c0-1.298-.914-1.822-2.048-1.173l-72.91 41.784a4.501 4.501 0 0 0-1.449 1.516 4.461 4.461 0 0 0-.599 2.004v10.444l77.006-44.13V29.141Z" fill="#000"/><path d="M170.071 72.162a.846.846 0 0 0-.787.102 3.138 3.138 0 0 0-.986 1.041 3.107 3.107 0 0 0-.416 1.368.775.775 0 0 0 .307.736.793.793 0 0 0 .787-.11 3.137 3.137 0 0 0 1.395-2.402.782.782 0 0 0-.3-.735Z" fill="#fff"/><path d="m171.734 69.494-.174.102v-.352c0-.493-.346-.696-.787-.446l-3.309 1.893a1.732 1.732 0 0 0-.554.576 1.699 1.699 0 0 0-.233.762v.36l-.182.102a2.277 2.277 0 0 0-1.039 1.783v3.184c0 .657.464.931 1.039.603l5.223-2.997a2.282 2.282 0 0 0 1.04-1.791v-3.2c.015-.641-.449-.907-1.024-.579Zm-2.458 6.322c-.255.154-.545.24-.843.25a1.107 1.107 0 0 1-.551-.141 1.373 1.373 0 0 1-.607-1.252 3.651 3.651 0 0 1 1.702-2.918 1.35 1.35 0 0 1 1.394-.11c.204.136.367.324.473.545.105.22.149.465.125.707a3.655 3.655 0 0 1-.49 1.663 3.69 3.69 0 0 1-1.203 1.255Zm2.363-4.249c-.268.15-.48 0-.48-.281a1.036 1.036 0 0 1 .48-.83c.268-.156.488 0 .488.274a1.068 1.068 0 0 1-.456.837h-.032ZM234.828 32.358l-5.096 2.918a2.225 2.225 0 0 0-1.016 1.744v3.13c0 .633.456.9 1.016.578l3.032-1.736 1.19 1.181a.199.199 0 0 0 .211.036.196.196 0 0 0 .12-.177v-1.916l.543-.313a2.237 2.237 0 0 0 1.04-1.745v-3.13c0-.633-.481-.891-1.04-.57Z" fill="#fff"/><path d="M171.852 81.855c2.662-1.502 4.82-.282 4.82 2.738a10.47 10.47 0 0 1-1.419 4.688 10.56 10.56 0 0 1-3.401 3.542c-2.671 1.565-4.829.305-4.829-2.738a10.374 10.374 0 0 1 1.414-4.694 10.46 10.46 0 0 1 3.415-3.536ZM181.446 78.17l15.998-9.169c.945-.54 1.709-.156 1.709.853a3.605 3.605 0 0 1-.515 1.612c-.297.489-.706.902-1.194 1.205l-15.998 9.168c-.938.54-1.702.157-1.702-.852a3.644 3.644 0 0 1 1.702-2.816Z" fill="#37474F"/><path opacity=".7" d="m181.446 78.17 15.998-9.169c.945-.54 1.709-.156 1.709.853a3.605 3.605 0 0 1-.515 1.612c-.297.489-.706.902-1.194 1.205l-15.998 9.168c-.938.54-1.702.157-1.702-.852a3.644 3.644 0 0 1 1.702-2.816Z" fill="#fff"/><path d="m180.91 84.671 10.973-6.258c.646-.368 1.166-.11 1.166.587a2.5 2.5 0 0 1-1.166 1.932L180.91 87.19c-.646.368-1.166.102-1.166-.594a2.485 2.485 0 0 1 1.166-1.925Z" fill="#37474F"/><path opacity=".7" d="m180.91 84.671 10.973-6.258c.646-.368 1.166-.11 1.166.587a2.5 2.5 0 0 1-1.166 1.932L180.91 87.19c-.646.368-1.166.102-1.166-.594a2.485 2.485 0 0 1 1.166-1.925Z" fill="#fff"/><path d="M171.852 164.108c2.662-1.502 4.82-.274 4.82 2.738a10.47 10.47 0 0 1-1.419 4.688 10.55 10.55 0 0 1-3.401 3.542c-2.671 1.565-4.829.306-4.829-2.738a10.404 10.404 0 0 1 1.416-4.692 10.49 10.49 0 0 1 3.413-3.538ZM181.446 160.431l15.998-9.176c.945-.54 1.709-.157 1.709.853a3.605 3.605 0 0 1-.515 1.611 3.648 3.648 0 0 1-1.194 1.205l-15.998 9.177c-.938.539-1.702.156-1.702-.861a3.652 3.652 0 0 1 1.702-2.809Z" fill="#37474F"/><path opacity=".7" d="m181.446 160.431 15.998-9.176c.945-.54 1.709-.157 1.709.853a3.605 3.605 0 0 1-.515 1.611 3.648 3.648 0 0 1-1.194 1.205l-15.998 9.177c-.938.539-1.702.156-1.702-.861a3.652 3.652 0 0 1 1.702-2.809Z" fill="#fff"/><path d="m180.91 166.925 10.973-6.259c.646-.367 1.166-.109 1.166.587a2.498 2.498 0 0 1-1.166 1.932l-10.973 6.259c-.646.367-1.166.101-1.166-.587a2.492 2.492 0 0 1 1.166-1.932Z" fill="#37474F"/><path opacity=".7" d="m180.91 166.925 10.973-6.259c.646-.367 1.166-.109 1.166.587a2.498 2.498 0 0 1-1.166 1.932l-10.973 6.259c-.646.367-1.166.101-1.166-.587a2.492 2.492 0 0 1 1.166-1.932Z" fill="#fff"/><path d="m170.355 97.376 60.582-34.735c.945-.54 1.709-.102 1.709.978v60.09a3.735 3.735 0 0 1-.5 1.674 3.77 3.77 0 0 1-1.209 1.268l-60.582 34.938c-.945.54-1.701.102-1.701-.978V100.31c.03-.588.2-1.16.496-1.67a3.75 3.75 0 0 1 1.205-1.264Z" fill="#F5F5F5"/><path d="M192.592 111.137a1.507 1.507 0 0 0-2.165-.338 1.498 1.498 0 0 0-.482.643l-21.268 40.118v9.051c0 1.08.788 1.518 1.702.978l60.582-34.758a3.776 3.776 0 0 0 1.208-1.268 3.736 3.736 0 0 0 .501-1.674v-20.027l-11.508-20.301c-.638-1.135-1.528-1.064-1.993.148l-15.321 40.329-11.256-12.901Z" fill="#37474F"/><path opacity=".3" d="M192.592 111.137a1.507 1.507 0 0 0-2.165-.338 1.498 1.498 0 0 0-.482.643l-21.268 40.118v9.051c0 1.08.788 1.518 1.702.978l60.582-34.758a3.776 3.776 0 0 0 1.208-1.268 3.736 3.736 0 0 0 .501-1.674v-20.027l-11.508-20.301c-.638-1.135-1.528-1.064-1.993.148l-15.321 40.329-11.256-12.901Z" fill="#00564C"/><path d="M175.042 113.633c5.34-3.043 9.681-10.46 9.681-16.562 0-3.13-1.135-5.273-2.938-6.258l-11.43 6.548a3.748 3.748 0 0 0-1.205 1.264 3.7 3.7 0 0 0-.496 1.669v14.192c1.701.759 3.93.524 6.388-.853Z" fill="#37474F"/><path opacity=".6" d="M175.042 113.633c5.34-3.043 9.681-10.46 9.681-16.562 0-3.13-1.135-5.273-2.938-6.258l-11.43 6.548a3.748 3.748 0 0 0-1.205 1.264 3.7 3.7 0 0 0-.496 1.669v14.192c1.701.759 3.93.524 6.388-.853Z" fill="#fff"/><path d="m170.355 179.943 60.582-34.743c.945-.54 1.709-.157 1.709.86a3.613 3.613 0 0 1-.517 1.607c-.297.488-.705.9-1.192 1.202l-60.582 34.743c-.945.539-1.701.156-1.701-.861a3.595 3.595 0 0 1 1.701-2.808Z" fill="#37474F"/><path opacity=".6" d="m170.355 179.943 60.582-34.743c.945-.54 1.709-.157 1.709.86a3.613 3.613 0 0 1-.517 1.607c-.297.488-.705.9-1.192 1.202l-60.582 34.743c-.945.539-1.701.156-1.701-.861a3.595 3.595 0 0 1 1.701-2.808Z" fill="#fff"/><path d="m170.355 187.281 60.582-34.72c.945-.54 1.709-.156 1.709.861a3.617 3.617 0 0 1-1.709 2.808l-60.582 34.743c-.945.54-1.701.157-1.701-.86.037-.573.21-1.128.506-1.62a3.625 3.625 0 0 1 1.195-1.212Z" fill="#37474F"/><path opacity=".6" d="m170.355 187.281 60.582-34.72c.945-.54 1.709-.156 1.709.861a3.617 3.617 0 0 1-1.709 2.808l-60.582 34.743c-.945.54-1.701.157-1.701-.86.037-.573.21-1.128.506-1.62a3.625 3.625 0 0 1 1.195-1.212Z" fill="#fff"/><path d="m179.697 64.668 43.221-24.761c1.323-.782 2.363-.14 2.363 1.37a5.181 5.181 0 0 1-.687 2.33 5.22 5.22 0 0 1-1.676 1.768l-43.213 24.69c-1.323.783-2.363.157-2.363-1.33a5.186 5.186 0 0 1 .69-2.312 5.22 5.22 0 0 1 1.665-1.755Z" fill="#FAFAFA"/><path d="m306.682 111.63 3.064 5.578-4.765 4.06-4.372-6.876 6.073-2.762Z" fill="#F28F8F"/><path d="M295.182 99.2c3.04 0 6.388 1.126 7.538 3.496l4.726 9.732s-2.686 3.912-6.947 3.63l-5.317-16.859Z" fill="#E0E0E0"/><path d="M306.446 118.077c.89-1.643 1.11-1.722 1.638-2.081.528-.36 3.773-.838 5.12-.955 1.576-.133 2.151.157 1.71 1.51a67.903 67.903 0 0 1-4.443 9.904c-.426.556-.504 1.072-2.292 1.252-1.662.156-3.75.25-4.364.282-.615.031-1.465.195-.922-1.604a58.371 58.371 0 0 1 2.442-5.969 76.201 76.201 0 0 1 1.111-2.339Z" fill="#37474F"/><path d="M270.952 173.426c-.788-.392-1.237.563-1.922 1.33a5.65 5.65 0 0 0-1.347 2.002c-.165.9.662 2.347 1.575 3.13.914.782 1.97 1.353 2.301 3.074.085.79.393 1.54.89 2.163a4.243 4.243 0 0 0 1.914 1.358c1.969.844 4.608.571 5.514 0 1.055-.681.086-1.432-1.395-3.544-1.937-2.754-3.45-4.694-3.45-7.299l-4.08-2.214Z" fill="#263238"/><path d="m272.504 171.165-1.575 2.347a2.203 2.203 0 0 0 .535 3.082l.047.039a2.432 2.432 0 0 0 3.049-.477l2.489-2.691-4.545-2.3Z" fill="#FFA8A7"/><path d="M301.759 125.915c.102 2.957-.74 14.904-2.796 20.184-2.056 5.281-3.246 8.567-3.892 9.67-.645 1.103-19.282 19.112-19.282 19.112s-3.151-.227-3.663-3.27c0 0 7.633-12.893 9.287-15.537 1.654-2.644 7.514-6.697 7.514-6.697l-.535-23.125 13.367-.337Z" fill="#37474F"/><path d="M274.15 123.036c0-.508 1.576-6.352 2.363-9.051l5.774 1.971-1.355 4.256-5.08 5.218a2.14 2.14 0 0 1-1.332-.859 2.118 2.118 0 0 1-.37-1.535ZM297.653 188.851l3.941-.89-1.305-5.699-3.94.89 1.304 5.699Z" fill="#FFA8A7"/><path d="M301.759 125.915h-18.905a64.833 64.833 0 0 0-.709 8.277c-.149 8.136 7.476 22.915 7.476 22.915a30.885 30.885 0 0 0 .488 9.849c1.67 6.478 6.223 17.454 6.223 17.454s2.859.399 4.269-1.237c0 0-2.521-22.272-3.198-27.975-.733-6.181-2.623-17.454-2.623-17.454a28.64 28.64 0 0 0 3.379-4.021 19.96 19.96 0 0 0 3.592-7.823" fill="#37474F"/><path d="M288.943 99.363c-3.623.869-8.562 1.995-9.988 5.891-1.426 3.896-3.482 10.804-3.482 10.804.788 1.369 5.16 2.503 6.68 1.713l.709-2.347v10.468c2.836 3.066 12.713 4.49 18.905 0v-19.558c0-3.13-1.749-6.885-6.577-7.159l-6.247.188Z" fill="#11B5E4"/><path d="m282.862 115.448 1.82-5.688-1.82 8.23v-2.542Z" fill="#E0E0E0"/><path d="M287.58 83.38a2.177 2.177 0 0 0-1.78.626c-.788.783-.606 2.214 0 5.523l2.363.267-.583-6.416ZM301.373 82.426a3.76 3.76 0 0 0 1.449-.274c.725-.414.914.407.512 1.119-.262.51-.652.945-1.132 1.263a3.387 3.387 0 0 1-1.609.552c0-.102-.677-1.838-.677-1.838l1.457-.822Z" fill="#263238"/><path d="M288.691 89.796c-.347.21-.851-.462-1.284-.908a1.518 1.518 0 0 0-1.39-.502 1.522 1.522 0 0 0-1.162.909c-.717 1.502.914 3.505 1.875 4.162a1.672 1.672 0 0 0 1.961.172l.252 5.75a6.155 6.155 0 0 0 1.884 2.336 6.219 6.219 0 0 0 2.771 1.177c3.403.453 2.702-2.347 1.576-3.693V97.11c.851.179 1.726.221 2.591.126.441-.118 1.497-1.385 2.182-2.809a12.68 12.68 0 0 0 .906-9.216c-1.221-5.147-6.79-5.304-10.106-3.23-3.316 2.072-2.056 7.815-2.056 7.815Z" fill="#FFA8A7"/><path d="M288.691 90.382c-.173 0-.843-1.103-1.284-1.494-.607-.547.173-5.476.173-5.476a3.369 3.369 0 0 1 .591-3.13c1.197-1.251 3.513-1.04 5.207-1.095a15.466 15.466 0 0 0 6.065-1.212c2.41-1.04 2.592-1.158 2.883-.11a5.814 5.814 0 0 1-1.024 5.07l-.788 1.267s-.732.61-2.977.884-6.073-.93-6.554-.993c-.654-.087-.788.54-1.142 2.253-.299 1.478-.551 4.028-1.15 4.036Z" fill="#263238"/><path d="m287.588 83.772-2.127-1.134a1.17 1.17 0 0 1 1.132-.651c.155.01.305.05.444.118a1.253 1.253 0 0 1 .551 1.667Z" fill="#263238"/><path d="M295.174 97.11a24.521 24.521 0 0 1-4.246-1.212 3.676 3.676 0 0 1-1.52-1.495c.166.64.461 1.238.866 1.76.788 1.026 4.9 1.777 4.9 1.777v-.83Z" fill="#F28F8F"/><path d="M295.276 89.686a.64.64 0 0 1-.63.65.65.65 0 0 1-.587-.41.631.631 0 0 1-.043-.248.64.64 0 0 1 .63-.65.653.653 0 0 1 .452.2.642.642 0 0 1 .178.458ZM294.607 87.316l-1.347.782a.769.769 0 0 1-.069-.601.774.774 0 0 1 .957-.527.79.79 0 0 1 .459.346Z" fill="#263238"/><path d="m294.89 93.887 1.442.54a.79.79 0 0 1-.977.47.792.792 0 0 1-.444-.409.79.79 0 0 1-.021-.6Z" fill="#F28F8F"/><path d="m300.9 87.84-1.228-.939a.787.787 0 0 1 1.071-.164.79.79 0 0 1 .311.519.76.76 0 0 1-.018.307.763.763 0 0 1-.136.277ZM300.522 89.506a.64.64 0 0 1-.63.65.653.653 0 0 1-.452-.199.641.641 0 0 1-.178-.458.64.64 0 0 1 .63-.65.647.647 0 0 1 .63.657Z" fill="#263238"/><path d="m297.553 89.428-.591 3.724 2.072-.243-1.481-3.481Z" fill="#F28F8F"/><path d="m301.144 186.06-.126-.563c.41.078 2.182 2.996 3.939 4.263 1.922 1.385 3.584 2.207 4.443 2.832 1.15.838-.512 2.551-3.34 2.707-1.402.071-3.939-.352-4.727-1.095-.787-.743-1.354-1.971-1.985-2.503-.63-.532-1.882-1.002-2.315-1.682a4.981 4.981 0 0 1-.245-2.105c0-.735.056-1.564.308-1.525l.094.422c.731.37 1.544.551 2.363.524.686-.031 1.922-.18 1.591-1.275ZM296.915 151.411s-1.678-11.836-2.127-13.667a19.055 19.055 0 0 0 3.734-2.652 31.44 31.44 0 0 1-2.553 3.168l.946 13.151ZM286.793 150.996s2.016 4.984 2.835 6.087c0 0-.204 3.802-.181 4.569l-1.055.915c-.028-1.72.131-3.438.472-5.124a30.759 30.759 0 0 1-2.071-6.447Z" fill="#263238"/><path d="M280.956 120.212s15.888 1.69 17.754 1.119c1.867-.571 4.372-2.409 5.688-3.192 1.315-.782 2.316-.829 2.316-.508 0 .32-1.151 2.065-1.41 2.793-.26.727 1.236.727 3.213.273 1.977-.453 2.765-1.564 3.277-.923.512.642-1.095 3.912-4.372 5.14-3.276 1.228-5.71.407-8.42.524-2.71.118-19.401 1.174-23.158 0a3.267 3.267 0 0 1 .198-1.773 3.31 3.31 0 0 1 1.101-1.411 12.02 12.02 0 0 1 3.813-2.042ZM192.875 195.589c.039-.509 1.008-5.985 1.67-9.052l6.483 1.972-1.04 4.295-5.388 5.179a2.144 2.144 0 0 1-1.346-.853 2.117 2.117 0 0 1-.379-1.541Z" fill="#FFA8A7"/><path d="M207.085 149.228h3.151c2.325 0 4.555.918 6.199 2.551a8.677 8.677 0 0 1 2.568 6.157v22.186h-20.685v-22.186c0-2.31.924-4.524 2.568-6.157a8.798 8.798 0 0 1 6.199-2.551Z" fill="#263238"/><path d="m224.233 184.081 3.064 5.578-4.773 4.052-4.364-6.876 6.073-2.754Z" fill="#F28F8F"/><path d="M212.733 171.642c3.04 0 6.388 1.126 7.538 3.497l4.726 9.732s-2.686 3.911-6.947 3.638l-5.317-16.867Z" fill="#455A64"/><path d="M215.19 268.157a27.622 27.622 0 0 0 3.514 3.849c.207.165.371.377.48.618.134.407.307 1.385-1.512 1.784a6.63 6.63 0 0 1-5.349-1.15c-1.331-1.064-1.173-2.934-2.402-4.162-.914-.9-2.151-1.252-2.836-2.347-.48-.783-.221-1.714.213-2.864.433-1.15.74-2.198 1.158-2.049l-.142.579c.433.915 3.151 1.494 4.482 1.056a50.62 50.62 0 0 0 2.394 4.686Z" fill="#263238"/><path d="M216.262 269.503c-.37-.431-.733-.869-1.071-1.346a32.022 32.022 0 0 1-1.867-3.575 3.192 3.192 0 0 1-.174-2.347l.898-3.012-4.726-1.08-1.024 4.217c-.22.962.481 1.917 1.765 3.309 1.284 1.393 2.765 4.459 3.938 5.328 1.174.868 2.135.954 2.733.657.599-.297.749-.571-.472-2.151Z" fill="#FFA8A7"/><path d="M202.477 270.809v-.665c.268.782 1.481 4.115 3.324 5.789 1.473 1.322 3.474 2.863 3.978 4.342.504 1.479-2.781 2.058-4.151 1.815a8.469 8.469 0 0 1-4.774-2.543c-.787-.962-1.291-2.104-1.859-2.863-.567-.759-1.859-1.564-2.158-2.472a5.53 5.53 0 0 1 .26-2.425c.221-.782.449-1.713.733-1.643v.548a3.756 3.756 0 0 0 2.363.782c.646 0 2.292-.149 2.284-.665Z" fill="#263238"/><path d="m207.132 277.099-1.331-1.174a13.557 13.557 0 0 1-2.836-4.498 6.314 6.314 0 0 1-.488-2.433v-2.637h-4.647v4.405c.22.962 2.363 3.513 3.568 5.179a6.782 6.782 0 0 0 4.206 2.785c1.773.235 2.694-.313 1.528-1.627Z" fill="#FFA8A7"/><path d="M198.751 199.023c-3.599 7.823.134 35.369.134 35.369-.11 1.275-1.575 3.771-2.111 9.388-.646 6.603 1.008 23.172 1.008 23.172a5.046 5.046 0 0 0 4.727.188s4.434-24.964 5.269-31.528l2.663-21.06 3.938 20.552a26.016 26.016 0 0 0-2.599 5.132c-.938 2.902-2.836 19.441-2.836 19.441a5.71 5.71 0 0 0 2.239 1.252 5.74 5.74 0 0 0 2.566.148s9.098-22.687 9.508-27.319c.244-2.777-3.836-35.846-3.836-35.846l-20.67 1.111Z" fill="#37474F"/><path d="m210.409 214.521.63-4.522s4.955-1.017 7.2-3.129a12.812 12.812 0 0 1-5.853 3.864l-.661 4.366.787 10.115-2.103-10.694Z" fill="#263238"/><path d="M205.147 171.853a9.14 9.14 0 0 0-3.62 1.791 9.066 9.066 0 0 0-2.484 3.169 7.772 7.772 0 0 0-.221 5.914l3.175 9.255s-1.505 3.622-3.261 7.041c8.089 4.483 18.18 2.128 20.614-1.142.102-.696-.04-3.826.157-7.377.205-3.795.733-8.082.134-10.421-1.118-4.357-3.206-8.441-7.357-8.441l-7.137.211Z" fill="#F03E3D"/><path d="M203.911 171.853c-2.757.383-6.806.939-8.208 7.448-1.402 6.509-1.82 8.895-1.82 8.895a9.178 9.178 0 0 0 3.147 2.006 9.232 9.232 0 0 0 3.691.591l1.425-5.007 1.765-13.933Z" fill="#455A64"/><path d="M205.478 177.345a3.636 3.636 0 0 1-2.562-1.054 3.604 3.604 0 0 1-.785-1.167 3.565 3.565 0 0 1-.276-1.378v-10.475h3.623v14.074Z" fill="#263238"/><path d="M215.608 153.382c1.095.642 2.442 3.372 2.308 9.091-.11 4.85-1.693 6.055-2.489 6.399-.796.345-2.324.133-3.813-.117v2.91s2.056 2.347 1.93 3.716c-.126 1.369-2.977 1.651-4.907.345a12.562 12.562 0 0 1-3.151-3.286v-7.041a1.868 1.868 0 0 1-1.274.676 1.894 1.894 0 0 1-1.38-.426c-1.647-1.087-1.71-3.771-.749-4.694s3.017-.657 3.403.673a11.797 11.797 0 0 0 5.514-1.643 8.85 8.85 0 0 0 3.105-2.75 8.774 8.774 0 0 0 1.503-3.853Z" fill="#FFA8A7"/><path d="M212.465 161.261a.61.61 0 0 1-.718.608.613.613 0 0 1-.494-.46.606.606 0 0 1 .566-.751.621.621 0 0 1 .646.603Z" fill="#263238"/><path d="m212.63 165.368 1.426.454a.726.726 0 0 1-.355.452.743.743 0 0 1-.574.056.784.784 0 0 1-.497-.962Z" fill="#F28F8F"/><path d="m217.498 159.383-1.236-.853a.722.722 0 0 1 .763-.326c.096.02.188.059.269.115a.784.784 0 0 1 .204 1.064ZM217.215 160.815a.62.62 0 0 1-.154.452.632.632 0 0 1-.429.213.638.638 0 0 1-.646-.603.613.613 0 0 1 .821-.607.614.614 0 0 1 .408.545Z" fill="#263238"/><path d="m214.316 160.47.103 3.669 1.945-.602-2.048-3.067ZM211.615 168.755c-1.576-.203-4.805-1.126-5.31-2.394a3.265 3.265 0 0 0 1.135 1.62c.961.821 4.175 1.752 4.175 1.752v-.978Z" fill="#F28F8F"/><path d="M223.989 190.519c.89-1.643 1.111-1.713 1.646-2.073.536-.36 3.774-.845 5.121-.962 1.575-.133 2.15.156 1.709 1.518a68.885 68.885 0 0 1-4.474 9.896c-.426.563-.512 1.08-2.293 1.252-1.78.172-3.757.25-4.371.289-.615.039-1.465.188-.914-1.611a59.308 59.308 0 0 1 2.434-5.97c.717-1.478 1.142-2.339 1.142-2.339Z" fill="#37474F"/><path d="M199.988 192.835s14.407 1.51 16.274.939c1.867-.571 4.372-2.425 5.719-3.192 1.347-.767 2.315-.829 2.315-.516 0 .312-1.15 2.073-1.417 2.792-.268.72 1.244.728 3.213.274 1.97-.454 2.765-1.564 3.285-.923.52.642-1.095 3.912-4.372 5.14-3.276 1.228-5.71.415-8.42.524-2.71.11-18.228 1.314-21.985.141a3.281 3.281 0 0 1 1.3-3.184 11.52 11.52 0 0 1 4.088-1.995Z" fill="#FFA8A7"/><path d="M201.028 189.158a48.144 48.144 0 0 0 1.575-5.077s-.26 3.778-1.331 5.805l-.244-.728Z" fill="#37474F"/><path d="m84.456 142.634-2.56 5.492 4.766 4.052 4.12-6.908-6.326-2.636Z" fill="#F28F8F"/><path d="M96.209 130.07c-3.04 0-6.389 1.134-7.539 3.497-1.15 2.362-4.726 9.74-4.726 9.74s2.686 3.911 6.948 3.63l5.317-16.867Z" fill="#37474F"/><path d="M109.395 217.212h-4.207v6.079h4.207v-6.079ZM94.606 209.691l-4.204.144.21 6.075 4.204-.144-.21-6.075Z" fill="#FFA8A7"/><path d="M109.111 157.865c0 3.99.52 29.776.52 29.776.102 1.142 1.182 3.262.945 7.666-.315 5.985-.835 22.609-.835 22.609s-1.969 1.941-4.726 0c0 0-3.812-22.593-4.561-28.523-.661-5.171-1.772-19.229-1.772-19.229l-3.9 16.546s.686 3.911.844 6.634c.157 2.722-.717 18.611-.717 18.611a4.636 4.636 0 0 1-4.576.172s-3.372-23.172-3.805-25.652c-.434-2.48 2.954-28.61 2.954-28.61h19.629Z" fill="#37474F"/><path d="M102.786 130.257h.063a8.342 8.342 0 0 1 4.547 2.947 8.237 8.237 0 0 1 1.754 5.103v19.558c-2.945 3.185-13.217 4.694-19.692 0v-20.34c0-3.246 1.82-7.158 6.837-7.448l6.491.18Z" fill="#02897A"/><path d="M104.204 113.617a2.259 2.259 0 0 1 1.851.65c.787.782.63 2.308 0 5.742l-2.458.282.607-6.674ZM89.86 112.663a3.967 3.967 0 0 1-1.536-.305c-.788-.43-.953.422-.544 1.158.275.531.682.983 1.182 1.313.5.33 1.078.527 1.678.572 0-.102.7-1.901.7-1.901l-1.48-.837Z" fill="#263238"/><path d="M103.046 120.291c.37.219.89-.478 1.339-.947a1.589 1.589 0 0 1 2.177-.204c.212.167.376.386.478.634.787 1.565-.954 3.646-1.946 4.327a1.761 1.761 0 0 1-2.048.179l-.26 5.977a6.382 6.382 0 0 1-1.96 2.432 6.45 6.45 0 0 1-2.884 1.222c-3.537.477-2.805-2.418-1.647-3.841v-2.175a8.474 8.474 0 0 1-2.686.141c-.465-.126-1.575-1.448-2.276-2.926-.788-1.659-2.12-4.6-.938-9.584 1.269-5.359 7.09-5.523 10.508-3.364 3.419 2.16 2.143 8.129 2.143 8.129Z" fill="#FFA8A7"/><path d="M103.046 120.901c.189 0 .882-1.142 1.339-1.565.63-.571-.181-5.726-.181-5.726s.638-1.948-.607-3.247c-1.244-1.299-3.663-1.08-5.427-1.142a15.907 15.907 0 0 1-6.302-1.26c-2.505-1.079-2.694-1.204-3-.117a6.021 6.021 0 0 0 1.063 5.273l1.244.454s.67.594 3.01.876c2.156.158 4.324.119 6.474-.118.677-.094.788.556 1.189 2.347.316 1.565.583 4.217 1.198 4.225Z" fill="#263238"/><path d="m104.196 114.025 2.213-1.182a1.2 1.2 0 0 0-.716-.63 1.228 1.228 0 0 0-.954.082 1.309 1.309 0 0 0-.543 1.73Z" fill="#263238"/><path d="M96.303 127.895a24.636 24.636 0 0 0 4.419-1.26 3.727 3.727 0 0 0 1.576-1.564 5.08 5.08 0 0 1-.898 1.83c-.835 1.064-5.105 1.847-5.105 1.847l.008-.853Z" fill="#F28F8F"/><path d="M97.09 119.477a.654.654 0 0 0 .422.597.667.667 0 0 0 .891-.495.652.652 0 0 0-.29-.669.674.674 0 0 0-.368-.106.67.67 0 0 0-.654.673ZM97.784 117.021l1.41.782a.84.84 0 0 0-.33-1.111.783.783 0 0 0-.61-.062.797.797 0 0 0-.47.391Z" fill="#263238"/><path d="m97.138 123.897-1.496.564a.783.783 0 0 0 .706.538c.105.006.21-.01.31-.045a.826.826 0 0 0 .48-1.057Z" fill="#F28F8F"/><path d="m91.238 117.561 1.269-.986a.78.78 0 0 0-.523-.322.787.787 0 0 0-.596.15.84.84 0 0 0-.15 1.158ZM91.632 119.297a.663.663 0 0 0 .654.673.671.671 0 0 0 .662-.681.653.653 0 0 0-.388-.671.66.66 0 0 0-.928.671v.008Z" fill="#263238"/><path d="m94.98 118.679-.22 3.919-2.057-.696 2.277-3.223Z" fill="#F28F8F"/><path d="M105.188 221.226v-.603c-.401.172-1.339 3.716-3.001 5.226-1.331 1.197-3.15 2.59-3.6 3.912-.448 1.322 2.521 2.159 3.758 1.94 1.441-.251 3.938-1.26 4.561-2.191.622-.931.921-2.308 1.425-2.996.505-.688 1.686-1.447 1.962-2.237a5.06 5.06 0 0 0-.244-2.191c-.197-.735-.402-1.565-.654-1.478v.453a3.31 3.31 0 0 1-2.103.704c-.607.047-2.111-.07-2.104-.539ZM90.577 214.615c-.22 0-.402.313-.882.829a8.982 8.982 0 0 1-2.474 1.768c-1.575.783-4.632 1.987-6.018 2.605-.859.392-.788 1.424.071 2.019.859.594 3.056 1.017 5.648.438 1.41-.313 3.253-1.604 4.41-1.565 1.159.039 3.34.055 4.2-.532.858-.586.52-1.846.275-2.926-.244-1.079-.646-2.972-1.04-2.894v.368c-.504.782-3.08 1.071-4.19.516v-.626Z" fill="#263238"/><path d="M84.952 148.955c-.89-1.651-1.11-1.721-1.646-2.081-.535-.36-3.773-.845-5.12-.955-1.575-.133-2.15.157-1.71 1.51a69.5 69.5 0 0 0 4.443 9.905c.426.555.512 1.071 2.293 1.243 1.78.173 3.757.251 4.371.29.615.039 1.466.188.914-1.612a60.077 60.077 0 0 0-2.434-5.969 32.953 32.953 0 0 0-1.11-2.331Z" fill="#37474F"/><path d="M117.24 153.915c-.039-.517-1.575-6.353-2.363-9.052l-5.766 1.972 1.355 4.248 5.073 5.218a2.137 2.137 0 0 0 1.331-.855 2.11 2.11 0 0 0 .37-1.531Z" fill="#FFA8A7"/><path d="M110.442 151.083s-15.895 1.69-17.762 1.118c-1.867-.571-4.372-2.425-5.719-3.191-1.347-.767-2.316-.83-2.316-.509 0 .321 1.15 2.065 1.418 2.785.268.72-1.245.728-3.214.274-1.969-.454-2.764-1.565-3.284-.923-.52.641 1.094 3.911 4.371 5.14 3.277 1.228 5.711.414 8.42.524 2.71.109 19.402 1.173 23.159 0 .1-.597.031-1.21-.198-1.77a3.28 3.28 0 0 0-1.102-1.406 12.12 12.12 0 0 0-3.773-2.042Z" fill="#FFA8A7"/><path d="M104.117 130.703c2.497.822 7.452 1.236 9.051 6.603 1.599 5.367 2.402 8.848 2.402 8.848-.945 1.252-4.726 2.699-6.459 2.159l-4.994-17.61Z" fill="#455A64"/><path d="m109.111 148.313-1.709-6.024 1.709 8.481v-2.457ZM73.255 160.971a50.837 50.837 0 0 0-.748 1.205l-3.08 4.381-3.001 4.467a.79.79 0 0 1-.874.305l-.205-.07c-1.04-.384-2.6-1.033-4.671-1.98-1.662-.782-1.576-1.009-1.576-1.29a3.503 3.503 0 0 1 0-.673c.339-.642 1.387-2.245 2.797-4.272 2.504-3.614 3.71-5.218 4.458-6.258a.791.791 0 0 1 .984-.258c1.347.446 4.08 1.611 5.514 2.19h.064c.771.415.346 2.222.338 2.253Z" fill="#37474F"/><path d="m73.334 160.83-.788 1.346-3.009 4.467-3.15 4.358a.788.788 0 0 1-.875.305l-.205-.071c-1.04-.383-2.6-1.032-4.67-1.979-1.663-.782-1.576-1.009-1.576-1.291a3.487 3.487 0 0 1 0-.673c1.575.689 6.561 3.036 6.727 2.95.394-.188 3.773-5.57 5.569-8.316.898-1.369 1.3-1.948 1.575-2.418a.513.513 0 0 0-.11-.782h-.063a1.281 1.281 0 0 1 .67.931 1.203 1.203 0 0 1-.095 1.173Z" fill="#37474F"/><path opacity=".1" d="m73.334 160.83-.788 1.346-3.009 4.467-3.15 4.358a.788.788 0 0 1-.875.305l-.205-.071c-1.04-.383-2.6-1.032-4.67-1.979-1.663-.782-1.576-1.009-1.576-1.291a3.487 3.487 0 0 1 0-.673c1.575.689 6.561 3.036 6.727 2.95.394-.188 3.773-5.57 5.569-8.316.898-1.369 1.3-1.948 1.575-2.418a.513.513 0 0 0-.11-.782h-.063a1.281 1.281 0 0 1 .67.931 1.203 1.203 0 0 1-.095 1.173Z" fill="#000"/><path d="m66.394 157.81 5.53 2.3-5.892 8.7-5.498-2.511 5.86-8.489Z" fill="#FAFAFA"/><path d="M64.842 188.125c1.513-.43 3.797-6.016 5.514-12.352 1.718-6.337 2.623-7.738 2.678-9.732.056-1.995-.086-4.616-.086-4.616l-2.993 4.342a7.785 7.785 0 0 0-.788-2.402c-.386-.782-1.11-1.4-1.701-.931-.316.25.52 1.322.338 3.716-.015.954.08 1.907.284 2.84l-5.561 13.378 2.315 5.757Z" fill="#FFA8A7"/><path d="M42.464 160.384c-1.757-.492-3.245.439-4.072 3.216a107.878 107.878 0 0 0-3.151 15.943c-.237 1.933-.504 4.28 1.355 4.46 1.417.141 5.513-.642 6.23-1.346.961-.923.788-4.647.788-4.647h-2.127s.457-2.934.59-3.825a305.652 305.652 0 0 1 1.175-6.775l-.788-7.026Z" fill="#F28F8F"/><path d="m52.775 157.638-.717 6.267-6.223.72.898-8.317 6.042 1.33Z" fill="#FFA8A7"/><path d="M39.455 148.493c.512-5.789 3.67-8.167 6.112-8.746 4.931-1.15 9.8.493 11.816 3.911a8.559 8.559 0 0 1 0 6.775c-1.071 2.425-17.905-1.956-17.905-1.956" fill="#263238"/><path d="M57.69 151.607s.89 2.387.654 2.567a3.46 3.46 0 0 1-1.158.203l.504-2.77Z" fill="#FFA8A7"/><path d="M55.036 144.065c1.173 1.002 3.15 2.817 2.623 7.823-.583 5.179-1.844 6.58-2.694 7.08-.567.337-3.08-.25-4.246-.93-1.45-.853-4.663-3.052-5.64-6.017-1.158-3.489-.575-7.651 1.962-8.738a8.353 8.353 0 0 1 7.995.782Z" fill="#FFA8A7"/><path d="M56.485 144.199a9.162 9.162 0 0 1-.846 4.015 9.231 9.231 0 0 1-2.518 3.253s-.732-1.886-2.363-1.456c-1.63.431-1.575 2.566-.41 3.724a2.37 2.37 0 0 0 2.45.665 7.089 7.089 0 0 1-1.992 3.912 9.324 9.324 0 0 1-5.113-.275 9.258 9.258 0 0 1-4.182-2.933c-3.6-4.295-2.537-11.116 3.087-13.127a11.33 11.33 0 0 1 6.27-.611 11.282 11.282 0 0 1 5.617 2.833ZM45.087 251.916l2.686 3.708a8.943 8.943 0 0 1-3.9.782c-2.402.094-3.063-.688-3.15-.876-.41-.868.228-2.425.402-3.763l3.962.149Z" fill="#263238"/><path d="M47.608 253.833s3.253-.212 5.514-.493c2.26-.282 4.032.782 3.505 1.729-.528.946-1.773 1.69-3.702 2.347-1.647.555-3.632.954-5.357 1.463-1.725.508-2.898 1.134-3.899.782-1.118-.383-1.575-.829-1.504-1.635.244-1.149.546-2.285.905-3.403l4.538-.79Z" fill="#263238"/><path d="M40.723 248.176s.402 3.364.433 4.092c.032.728 3.309.954 3.939-.368l.102-4.115-4.474.391Z" fill="#F28F8F"/><path d="m44.023 250.25-1.142 5.108s-.118.618 2.568 1.017c2.686.399 6.877-1.392 7.594-1.752.717-.36.787-1.088-1.836-.947-2.623.141-3.56.157-3.56.157l.859-2.269-4.483-1.314Z" fill="#FFA8A7"/><path d="M40.723 181.859c-2.245 3.466-4.372 6.517-4.829 10.413-.96 8.23 2.19 17.633 2.86 23.72a10.96 10.96 0 0 0-2.12 5.938c0 2.519 4.089 26.247 4.089 26.247s2.97.899 4.466-.392l2.812-43.653-1.48-5.312-5.798-16.961Z" fill="#455A64"/><path d="m48.001 204.132-1.48-5.312a36.052 36.052 0 0 1-8.011-3.129s1.52 2.738 5.86 4.24l2.26 6.829.198 15.647L48 204.132Z" fill="#37474F"/><path d="M40.723 181.859c-1.197 1.94-4.072 5.273-3.458 8.465.74 3.911 2.836 6.595 9.255 8.496l6.018 21.647s-3.15 2.918-4.088 5.687c-.937 2.77-4.427 24.096-4.427 24.096s1.072 1.736 4.459 1.314c0 0 11.815-26.748 12.603-28.469a8.607 8.607 0 0 0 1-5.812c-.378-2.801-4.395-33.484-4.395-33.484l-16.967-1.94Z" fill="#455A64"/><path d="M39.628 162.325a2.977 2.977 0 0 1 1.289-1.52 3.02 3.02 0 0 1 1.964-.374c4.199 1.135 10.729 2.629 11.965 2.989 0 0-.559 8.034 4.278 10.866-.229 1.792-1.458 9.513-1.458 9.513s-5.813 2.801-10.594 1.424c-4.782-1.377-6.388-3.364-6.388-3.364l2.363-3.872c-.512-1.26-2.49-5.539-3.765-9.513a11.556 11.556 0 0 1 .346-6.149Z" fill="#FFB900"/><path d="M42.464 176.461a42.345 42.345 0 0 0 6.23 3.059 11.785 11.785 0 0 1-5.576-1.565l-.654-1.494ZM59.021 173.684a8.64 8.64 0 0 1-4.025-3.755 8.264 8.264 0 0 0 1.282 3.566 8.332 8.332 0 0 0 2.743 2.63v-2.441Z" fill="#E0E0E0"/><path d="M54.886 163.42c2.639.782 4.277 1.032 5.703 2.3 1.875 1.674 3.812 11.14 4.206 13.096.686 3.387 1.442 6.908.701 8.488-.535 1.142-3.45 1.995-4.726-1.698-.268-.782-.323-1.142-.56-1.846-1.204-3.536-3.016-10.295-3.016-10.295s-3.568-1.956-2.308-10.045Z" fill="#FFA8A7"/><path d="M42.094 141.977c-.938.54-2.631 1.064-3.687 5.954a74.391 74.391 0 0 0-1.528 12.454c.04 1.518 3.206 5.735 9.886 5.336s9.106-4.287 9.106-4.287-3.285-1.33-3.025-7.041c0 0-1.158 2.261-4.332 1.126-3.175-1.134-6.42-13.542-6.42-13.542Z" fill="#263238"/></svg>