<svg width="540" height="475" fill="none" xmlns="http://www.w3.org/2000/svg"><path d="M79.054 428.856c105.406 60.594 276.314 60.594 381.72 0 105.406-60.593 105.406-158.837 0-219.443-105.406-60.607-276.266-60.594-381.72 0-105.454 60.593-105.357 158.85 0 219.443Z" fill="#F5F5F5"/><path d="m49.672 329.485-34.264-21.762v-80.871l34.264 21.776v80.857Z" fill="#E0E0E0"/><path d="m49.672 248.628 48.955-31.099v80.857l-48.955 31.099v-80.857Z" fill="#EBEBEB"/><path d="m98.627 217.529-48.955 31.099-34.264-21.776 48.955-31.099 34.264 21.776Z" fill="#F5F5F5"/><path d="m54.577 251.732 39.157-24.88.904.571v29.958l-39.17 24.879-.903-.57.012-29.958Z" fill="#E0E0E0"/><path d="m55.469 252.315 39.168-24.893v29.959L55.47 282.26v-29.945Z" fill="#F5F5F5"/><path d="m70.823 247.633 6.665-4.23c.855-.557 1.554-.305 1.554.557a3.643 3.643 0 0 1-.504 1.474c-.27.442-.63.809-1.05 1.072l-6.665 4.231c-.868.557-1.567.305-1.567-.557.063-.53.237-1.036.509-1.478a3.251 3.251 0 0 1 1.058-1.069ZM53.673 289.633l39.157-24.879v29.959l.904.57-39.17 24.879-.89-.57v-29.959Z" fill="#E0E0E0"/><path d="m54.565 290.204 39.169-24.879v29.958l-39.17 24.88v-29.959Z" fill="#F5F5F5"/><path d="m69.92 285.536 6.724-4.217c.868-.557 1.567-.305 1.567.557a3.634 3.634 0 0 1-.509 1.477 3.233 3.233 0 0 1-1.058 1.069l-6.665 4.231c-.867.557-1.566.305-1.566-.557a3.647 3.647 0 0 1 .48-1.475 3.262 3.262 0 0 1 1.026-1.085ZM49.672 243.96l-34.264-21.776v-80.858l34.264 21.763v80.871Z" fill="#E0E0E0"/><path d="m49.672 163.089 48.955-31.099v80.871L49.672 243.96v-80.871Z" fill="#EBEBEB"/><path d="m98.627 131.99-48.955 31.099-34.264-21.763 48.955-31.099 34.264 21.763Z" fill="#F5F5F5"/><path d="m54.565 166.205 39.169-24.879.904.57v29.959l-39.17 24.879-.903-.583v-29.946Z" fill="#E0E0E0"/><path d="m70.823 162.094 6.653-4.23c.867-.544 1.566-.292 1.566.57a3.662 3.662 0 0 1-.51 1.476 3.268 3.268 0 0 1-1.056 1.07l-6.653 4.231c-.868.543-1.567.305-1.567-.557a3.678 3.678 0 0 1 .51-1.483 3.286 3.286 0 0 1 1.057-1.077ZM53.673 204.108l39.157-24.879v29.945l.904.57-39.17 24.879-.89-.57v-29.945Z" fill="#E0E0E0"/><path d="m54.565 204.678 39.169-24.879v29.945l-39.17 24.879v-29.945Z" fill="#F5F5F5"/><path d="m69.919 199.997 6.725-4.231c.856-.543 1.567-.291 1.567.571a3.716 3.716 0 0 1-.516 1.472 3.326 3.326 0 0 1-1.051 1.074l-6.725 4.191c-.868.543-1.567.291-1.567-.557a3.674 3.674 0 0 1 .518-1.461c.271-.436.63-.799 1.049-1.059ZM54.565 166.205l39.169-24.879v29.945l-39.17 24.88v-29.946Z" fill="#E0E0E0"/><path d="m113.318 156.127-21.44-13.62v26.391l21.44 13.606v-26.377Z" fill="#E0E0E0"/><path d="M69.256 200.421v-37.332l8.4-5.358 1.386 2.255 24.478-15.556v34.215l-34.264 21.776Z" fill="#EBEBEB"/><path d="m69.256 200.421 2.447-32.664 34.263-21.763-2.446 32.651-34.264 21.776Z" fill="#F5F5F5"/><path d="m74.15 181.006-18.681-11.87v26.391l18.68 11.856v-26.377Z" fill="#EBEBEB"/><path d="m74.15 178.645 39.168-24.879v29.945L74.149 208.59v-29.945Z" fill="#F5F5F5"/><path d="m89.503 173.964 6.653-4.231c.868-.544 1.567-.292 1.567.57a3.679 3.679 0 0 1-.513 1.476 3.292 3.292 0 0 1-1.054 1.071l-6.653 4.23c-.867.544-1.566.292-1.566-.557a3.677 3.677 0 0 1 .51-1.482 3.285 3.285 0 0 1 1.056-1.077ZM74.15 178.645l-1.302-.823v29.946l1.301.822v-29.945Z" fill="#E0E0E0"/><path d="m72.848 177.823 39.156-24.893 1.314.836-39.169 24.879-1.301-.822Z" fill="#EBEBEB"/><path d="m454.471 280.496-34.276-21.776v-80.858l34.276 21.763v80.871Z" fill="#E0E0E0"/><path d="m454.471 199.626 48.954-31.1v80.871l-48.954 31.099v-80.87Z" fill="#EBEBEB"/><path d="m503.426 168.526-48.955 31.099-34.276-21.762 48.967-31.113 34.264 21.776Z" fill="#F5F5F5"/><path d="m459.364 202.742 39.168-24.88.904.571-.012 29.945-39.156 24.879-.904-.57v-29.945Z" fill="#E0E0E0"/><path d="m460.268 203.312 39.168-24.879-.012 29.945-39.156 24.88v-29.946Z" fill="#F5F5F5"/><path d="m475.622 198.631 6.653-4.231c.867-.543 1.566-.291 1.566.557a3.684 3.684 0 0 1-.509 1.483 3.29 3.29 0 0 1-1.057 1.077l-6.653 4.23c-.868.544-1.567.292-1.567-.557.064-.53.238-1.038.51-1.482a3.29 3.29 0 0 1 1.057-1.077ZM458.46 240.644l39.169-24.892v29.958l.904.57-39.169 24.88-.904-.571v-29.945Z" fill="#E0E0E0"/><path d="m459.364 241.214 39.168-24.879v29.945l-39.168 24.879v-29.945Z" fill="#F5F5F5"/><path d="m474.718 236.533 6.665-4.231c.855-.544 1.554-.292 1.554.557a3.703 3.703 0 0 1-.506 1.479c-.27.444-.628.813-1.048 1.081l-6.665 4.23c-.868.544-1.567.292-1.567-.57a3.685 3.685 0 0 1 .513-1.475 3.271 3.271 0 0 1 1.054-1.071Z" fill="#E0E0E0"/><path d="M128.467 365.014s.133-21.033-11.919-36.801c-10.666-13.965-16.342-22.824-12.98-26.909 3.362-4.084 10.594-5.066 20.344 6.233 9.75 11.3 10.509 42.598 9.159 49.679l-4.604 7.798Z" fill="#02897A"/><path opacity=".2" d="M128.467 365.014s.133-21.033-11.919-36.801c-10.666-13.965-16.342-22.824-12.98-26.909 3.362-4.084 10.594-5.066 20.344 6.233 9.75 11.3 10.509 42.598 9.159 49.679l-4.604 7.798Z" fill="#000"/><path d="M130.492 342.402a.567.567 0 0 1-.378-.144.68.68 0 0 1-.213-.373c-4.218-21.709-15.04-33.711-21.127-38.937a.676.676 0 0 1-.228-.439.716.716 0 0 1 .12-.489c.1-.139.245-.23.406-.252a.571.571 0 0 1 .45.133c6.206 5.305 17.258 17.585 21.56 39.706a.69.69 0 0 1-.079.497.618.618 0 0 1-.163.185.554.554 0 0 1-.216.1l-.132.013Z" fill="#fff"/><path d="m128.009 372.826-4.905 3.116c-.523-1.573-1.406-2.972-2.562-4.061-1.157-1.089-2.549-1.833-4.042-2.159-5.363-1.326-10.931-1.1-14.692-6.219-3.76-5.119.82-10.689 0-14.456-.819-3.766-1.349-4.854-8.074-8.62-6.725-3.766-9.377-10.013-4.315-14.243 5.062-4.231 13.257-1.128 18.223 2.652 4.411 3.316 8.605 4.191 13.534 4.867 4.929.677 12.956 3.687 11.726 16.286a107.675 107.675 0 0 1-4.893 22.837Z" fill="#02897A"/><path d="M109.184 356.275a.58.58 0 0 1-.357-.13.671.671 0 0 1-.221-.334.738.738 0 0 1 .044-.507.638.638 0 0 1 .353-.329c.434-.146 10.847-3.779 15.27.12a.713.713 0 0 1 .058.894.592.592 0 0 1-.378.243.558.558 0 0 1-.427-.103c-3.905-3.448-14.053.08-14.161.119l-.181.027Z" fill="#fff"/><path d="M128.551 371.817a.559.559 0 0 1-.397-.166.677.677 0 0 1-.193-.417c-2.688-27.93-33.263-41.178-33.565-41.311a.602.602 0 0 1-.2-.138.715.715 0 0 1-.148-.724.653.653 0 0 1 .315-.362.565.565 0 0 1 .455-.023c.326.146 31.576 13.673 34.336 42.438a.706.706 0 0 1-.129.485.588.588 0 0 1-.401.245l-.073-.027Z" fill="#fff"/><path d="M428.318 354.485c.133-.465 5.303-29.747 0-50.515-4.82-19.044-11.111-26.073-20.078-27.624-8.967-1.552-12.859 5.556-8.099 15.185 4.761 9.628 16.222 22.399 19.03 43.91 1.205 8.858 2.121 16.55 2.121 16.55l7.026 2.494Z" fill="#02897A"/><path opacity=".2" d="M428.318 354.485c.133-.465 5.303-29.747 0-50.515-4.82-19.044-11.111-26.073-20.078-27.624-8.967-1.552-12.859 5.556-8.099 15.185 4.761 9.628 16.222 22.399 19.03 43.91 1.205 8.858 2.121 16.55 2.121 16.55l7.026 2.494Z" fill="#000"/><path d="M425.293 337.668a.563.563 0 0 1-.228-.065.612.612 0 0 1-.188-.157.721.721 0 0 1-.15-.48c1.205-23.713-5.833-44.878-18.452-55.263a.681.681 0 0 1-.235-.436.718.718 0 0 1 .115-.492.605.605 0 0 1 .397-.253.57.57 0 0 1 .447.121c12.931 10.609 20.186 32.252 18.921 56.402a.69.69 0 0 1-.197.453.572.572 0 0 1-.43.17Z" fill="#fff"/><path d="M442.19 369.736c-.687-5.451 2.157-13.62 8.918-15.556 6.761-1.937 9.774-6.207 7.34-10.875-2.435-4.668-1.868-8.952 4.266-10.888 6.135-1.936 11.51-5.305 7.979-12.44-2.567-5.159-3.134-8.501 3.157-18.659 5.219-8.435.952-13.381-5.58-12.453-6.532.928-10.569 9.495-14.655 10.928-4.086 1.432-5.026-6.207-10.413-2.785-5.387 3.421-5.062 12.187-5.23 18.301-.169 6.114-.531 7.493-5.4 6.75-4.869-.742-9.641.133-9.533 13.09.085 11.113 5.472 24.879 5.472 24.879l13.679 9.708Z" fill="#02897A"/><path d="M433.646 361.447h-.061a.603.603 0 0 1-.41-.248.723.723 0 0 1-.132-.495c3.399-33.406 29.455-61.588 36.252-67.303a.563.563 0 0 1 .449-.131.6.6 0 0 1 .401.257.715.715 0 0 1-.115.935c-6.713 5.636-32.431 33.446-35.782 66.388a.7.7 0 0 1-.199.424.587.587 0 0 1-.403.173Z" fill="#fff"/><path d="M445.528 325.733a.575.575 0 0 1-.342-.117.663.663 0 0 1-.224-.307.751.751 0 0 1 .024-.51.657.657 0 0 1 .337-.352c9.714-3.979 20.73-2.096 21.2-2.016a.598.598 0 0 1 .388.267c.092.141.13.317.106.489a.705.705 0 0 1-.244.427.587.587 0 0 1-.443.13c-.109 0-11.172-1.91-20.585 1.949a.622.622 0 0 1-.217.04ZM436.875 345.811a.554.554 0 0 1-.245-.06.612.612 0 0 1-.201-.165c-4.04-5.177-6.778-11.427-7.942-18.129a.702.702 0 0 1 .11-.494.64.64 0 0 1 .174-.174.55.55 0 0 1 .457-.076c.077.021.15.058.214.11a.641.641 0 0 1 .158.191.715.715 0 0 1 .08.244c1.152 6.438 3.787 12.443 7.653 17.439a.74.74 0 0 1 .091.717.66.66 0 0 1-.222.286.57.57 0 0 1-.327.111Z" fill="#fff"/><path d="M128.009 167.571v205.267l190.926-121.293-.012-186.607-141.959 90.193-4.905-15.556-44.05 27.996Z" fill="#22343D"/><path d="m128.009 372.838 9.786-186.608L328.721 64.938l-9.786 186.607-190.926 121.293Z" fill="#E0E0E0"/><path d="m128.009 372.838 14.679-183.491L333.614 68.041l-14.679 183.504-190.926 121.293Z" fill="#22343D"/><path d="M157.38 186.231v205.28l190.926-121.306V83.598l-141.972 90.194-4.893-15.557-44.061 27.996Z" fill="#F03E3D"/><path d="m157.38 391.511 9.786-186.62L358.092 83.598l-9.786 186.607L157.38 391.511Z" fill="#E0E0E0"/><path d="m157.38 391.511 14.679-183.504L362.985 86.701l-14.679 183.504L157.38 391.511Z" fill="#F03E3D"/><path d="M318.887 456.826c-34.276-21.776-66.068-45.448-80.579-73.219l44.11-28.022 36.469 101.241Z" fill="#E0E0E0"/><path d="M191.643 208.007v205.267l190.926-121.293V105.373l-141.971 90.194-4.893-15.556-44.062 27.996Z" fill="#02897A"/><path opacity=".2" d="M191.643 208.007v205.267l190.926-121.293V105.373l-141.971 90.194-4.893-15.556-44.062 27.996Z" fill="#000"/><path d="M246.648 268.693c-.482 0-.554-.61-.554-.968V92.668a4.711 4.711 0 0 1 .529-1.928 4.261 4.261 0 0 1 1.254-1.467L385.679 1.745c.188-.13.404-.203.626-.212.482 0 .555.61.555.968v175.056a4.756 4.756 0 0 1-.528 1.935 4.293 4.293 0 0 1-1.256 1.474l-137.801 87.528a1.238 1.238 0 0 1-.627.199Z" fill="#fff"/><path d="M386.233 2.143c.01.097.01.195 0 .292v175.056a4.084 4.084 0 0 1-.45 1.604 3.69 3.69 0 0 1-1.032 1.234l-137.802 87.529-.241.119a.894.894 0 0 1 0-.292V92.629a4.1 4.1 0 0 1 .452-1.596 3.713 3.713 0 0 1 1.03-1.229L385.992 2.276a.644.644 0 0 1 .253-.12l-.012-.013Zm.084-1.313a1.76 1.76 0 0 0-.928.305L247.588 88.663a4.937 4.937 0 0 0-1.472 1.717 5.489 5.489 0 0 0-.613 2.262v175.056c0 1.035.47 1.632 1.205 1.632a1.74 1.74 0 0 0 .928-.305l137.801-87.529a4.871 4.871 0 0 0 1.477-1.713 5.423 5.423 0 0 0 .608-2.265V2.462c0-1.035-.47-1.645-1.205-1.632Z" fill="#02897A"/><path opacity=".7" d="M386.233 2.143c.01.097.01.195 0 .292v175.056a4.084 4.084 0 0 1-.45 1.604 3.69 3.69 0 0 1-1.032 1.234l-137.802 87.529-.241.119a.894.894 0 0 1 0-.292V92.629a4.1 4.1 0 0 1 .452-1.596 3.713 3.713 0 0 1 1.03-1.229L385.992 2.276a.644.644 0 0 1 .253-.12l-.012-.013Zm.084-1.313a1.76 1.76 0 0 0-.928.305L247.588 88.663a4.937 4.937 0 0 0-1.472 1.717 5.489 5.489 0 0 0-.613 2.262v175.056c0 1.035.47 1.632 1.205 1.632a1.74 1.74 0 0 0 .928-.305l137.801-87.529a4.871 4.871 0 0 0 1.477-1.713 5.423 5.423 0 0 0 .608-2.265V2.462c0-1.035-.47-1.645-1.205-1.632Z" fill="#fff"/><path d="m260.182 99.313 48.955-31.1v62.199l-48.955 31.099V99.313Z" fill="#02897A"/><path opacity=".8" d="m260.182 99.313 48.955-31.1v62.199l-48.955 31.099V99.313Z" fill="#11B5E4"/><path d="M301.797 83.717v18.7l-1.542.941v-5.716c0-3.156-2.326-4.23-5.219-2.4l-20.741 13.195c-2.88 1.831-5.219 5.875-5.219 9.032v5.716l-1.53 1.007v-18.659l34.251-21.816Z" fill="#fff"/><path d="M292.373 131.327c-2.507 1.591-4.544-.08-4.544-3.753V97.642l-6.303 3.766v30.171c0 3.66-2.037 7.957-4.544 9.509l-4.555 2.891v1.989l24.477-15.556v-1.976l-4.531 2.891Z" fill="#fff"/><path d="M318.887 65.15c0 1.725 1.41 2.215 3.133 1.128l47.63-30.304a6.573 6.573 0 0 0 2.111-2.148 7.355 7.355 0 0 0 1.022-2.957c0-1.711-1.41-2.215-3.133-1.114l-47.593 30.237a6.544 6.544 0 0 0-2.145 2.163 7.343 7.343 0 0 0-1.025 2.996ZM318.887 83.717c0 1.724 1.41 2.228 3.133 1.127l47.593-30.237a6.575 6.575 0 0 0 2.112-2.148 7.37 7.37 0 0 0 1.022-2.958c0-1.71-1.41-2.214-3.134-1.113L322.02 78.624a6.567 6.567 0 0 0-2.108 2.143 7.34 7.34 0 0 0-1.025 2.95ZM318.887 102.416c0 1.724 1.41 2.228 3.133 1.127l47.593-30.237a6.559 6.559 0 0 0 2.109-2.142 7.355 7.355 0 0 0 1.025-2.95c0-1.725-1.41-2.229-3.134-1.128L322.02 97.323a6.567 6.567 0 0 0-2.108 2.142 7.338 7.338 0 0 0-1.025 2.951ZM318.887 121.076c0 1.724 1.41 2.228 3.133 1.127l47.593-30.237a6.56 6.56 0 0 0 2.109-2.142 7.355 7.355 0 0 0 1.025-2.95c0-1.724-1.41-2.228-3.134-1.128l-47.593 30.237a6.565 6.565 0 0 0-2.108 2.143 7.338 7.338 0 0 0-1.025 2.95ZM260.182 177.067c0 1.724 1.398 2.228 3.134 1.128l106.333-67.636a6.547 6.547 0 0 0 2.112-2.14 7.348 7.348 0 0 0 1.022-2.952c0-1.724-1.41-2.215-3.134-1.128l-106.333 67.636a6.522 6.522 0 0 0-2.113 2.14 7.306 7.306 0 0 0-1.021 2.952ZM260.182 195.726c0 1.724 1.398 2.228 3.134 1.127l106.333-67.555a6.576 6.576 0 0 0 2.112-2.149 7.35 7.35 0 0 0 1.022-2.957c0-1.711-1.41-2.215-3.134-1.114l-106.333 67.556a6.518 6.518 0 0 0-2.113 2.139 7.315 7.315 0 0 0-1.021 2.953ZM260.182 214.399c0 1.71 1.398 2.214 3.134 1.114l106.333-67.556a6.573 6.573 0 0 0 2.112-2.148 7.354 7.354 0 0 0 1.022-2.958c0-1.711-1.41-2.215-3.134-1.114l-106.333 67.556a6.534 6.534 0 0 0-2.115 2.145 7.318 7.318 0 0 0-1.019 2.961Z" fill="#455A64"/><path d="m191.643 413.274 34.264-164.832 190.926-121.306-34.264 164.845-190.926 121.293Z" fill="#02897A"/><path d="M238.356 261.346v122.261l44.062-27.996V233.363l-44.062 27.983Z" fill="#02897A"/><path opacity=".2" d="M238.356 261.346v122.261l44.062-27.996V233.363l-44.062 27.983Z" fill="#000"/><path d="M318.971 456.03c-3.748-3.076-39.879-33.459-58.246-76.918-19.549-46.205-19.525-100.101-19.525-120.378v-.637l130.98-83.205c0 20.463 0 74.439 19.633 120.803 17.945 42.438 52.691 72.436 58.199 77.024L318.971 456.03Z" fill="#fff"/><path d="M371.578 176.086c0 21.325.374 74.266 19.693 119.94 17.342 40.979 50.316 70.447 57.656 76.667l-129.919 82.541c-5.074-4.204-39.844-34.083-57.729-76.348-19.524-46.072-19.524-99.862-19.524-120.113v-.252l129.775-82.449.048.014Zm1.157-2.308L240.55 257.765c0 19.084-.362 74.532 19.584 121.678 19.633 46.27 58.753 77.383 58.753 77.383l132.221-84.001s-39.168-31.112-58.741-77.383c-19.957-47.146-19.584-102.593-19.584-121.677l-.048.013Z" fill="#02897A"/><path opacity=".7" d="M371.578 176.086c0 21.325.374 74.266 19.693 119.94 17.342 40.979 50.316 70.447 57.656 76.667l-129.919 82.541c-5.074-4.204-39.844-34.083-57.729-76.348-19.524-46.072-19.524-99.862-19.524-120.113v-.252l129.775-82.449.048.014Zm1.157-2.308L240.55 257.765c0 19.084-.362 74.532 19.584 121.678 19.633 46.27 58.753 77.383 58.753 77.383l132.221-84.001s-39.168-31.112-58.741-77.383c-19.957-47.146-19.584-102.593-19.584-121.677l-.048.013Z" fill="#fff"/><path d="m357.827 201.946-41.796 26.524a6.181 6.181 0 0 0-2.079 2.103 6.947 6.947 0 0 0-.958 2.923c.06 1.684 1.518 2.162 3.242 1.061l41.808-26.524a6.193 6.193 0 0 0 2.058-2.076 6.951 6.951 0 0 0 .967-2.884c-.073-1.75-1.507-2.228-3.242-1.127ZM358.718 220.049l-41.796 26.523a5.819 5.819 0 0 0-2.037 2.068 6.55 6.55 0 0 0-.879 2.892c.132 1.631 1.651 2.069 3.374.968l41.808-26.523a5.743 5.743 0 0 0 2.023-2.063 6.476 6.476 0 0 0 .858-2.884c-.121-1.645-1.615-2.042-3.351-.981ZM360.394 237.647l-41.808 26.524c-1.724 1.101-2.977 3.289-2.772 4.867.205 1.578 1.783 1.989 3.519.889l41.808-26.524c1.723-1.101 2.953-3.276 2.736-4.854-.217-1.578-1.76-2.002-3.483-.902ZM362.9 254.715l-41.808 26.524c-1.723 1.101-2.916 3.249-2.627 4.787.289 1.539 1.928 1.884 3.616.783l41.796-26.524c1.735-1.101 2.892-3.236 2.603-4.774-.289-1.539-1.796-1.897-3.58-.796ZM366.299 271.213l-41.808 26.524c-1.723 1.101-2.844 3.196-2.41 4.668.434 1.472 2.085 1.804 3.808.703l41.808-26.524c1.736-1.101 2.82-3.183 2.411-4.668-.41-1.485-2.085-1.804-3.809-.703ZM370.71 287.114l-101.886 64.731c-1.724 1.101-2.772 3.143-2.302 4.562.47 1.419 2.265 1.685 3.989.584l101.887-64.731c1.735-1.101 2.735-3.13 2.265-4.562-.47-1.432-2.29-1.684-3.953-.584ZM376.073 302.299 274.198 367.03c-1.735 1.1-2.687 3.09-2.109 4.442.579 1.353 2.411 1.565 4.17.465l101.887-64.732c1.735-1.1 2.663-3.09 2.085-4.442-.579-1.353-2.422-1.552-4.158-.464ZM382.762 316.768l-101.887 64.731c-1.735 1.1-2.591 3.037-1.904 4.323.687 1.286 2.651 1.419 4.387.318l101.814-64.731c1.724-1.087 2.555-3.01 1.868-4.297-.687-1.286-2.591-1.445-4.278-.344ZM390.56 330.454l-101.875 64.717c-1.736 1.101-2.507 2.998-1.723 4.204.783 1.207 2.844 1.327 4.579.213l101.875-64.731c1.735-1.101 2.483-2.971 1.699-4.191-.783-1.22-2.82-1.313-4.555-.212ZM399.454 343.463l-101.887 64.718c-1.723 1.101-2.41 2.944-1.542 4.098.867 1.154 3 1.207 4.736.106l101.887-64.757c1.723-1.101 2.41-2.918 1.518-4.072-.892-1.154-2.977-1.233-4.712-.093ZM409.276 355.85l-101.85 64.717c-1.736 1.101-2.411 2.905-1.398 3.979 1.012 1.074 3.157 1.101 4.881 0l101.886-64.731c1.736-1.101 2.338-2.878 1.374-3.979-.964-1.1-3.133-1.074-4.893.014ZM420.123 367.693l-101.887 64.718c-1.723 1.1-2.29 2.864-1.205 3.912s3.302 1.008 5.038-.093l101.802-64.731c1.723-1.101 2.266-2.825 1.205-3.886-1.06-1.061-3.266-1.021-4.953.08Z" fill="#455A64"/><path d="m300.881 238.138-48.063 30.502c.531 19.163 2.519 46.801 9.799 74.638l48.075-30.503c-7.292-27.836-9.28-55.487-9.811-74.637Z" fill="#02897A"/><path opacity=".8" d="m300.881 238.138-48.063 30.502c.531 19.163 2.519 46.801 9.799 74.638l48.075-30.503c-7.292-27.836-9.28-55.487-9.811-74.637Z" fill="#11B5E4"/><path d="M272.415 264.423a9.539 9.539 0 0 0-.513-3.632 8.893 8.893 0 0 0-1.825-3.079l-17.259 10.954c.145 5.066.386 10.729.808 16.83 2.245.284 4.516-.178 6.52-1.326 6.785-3.422 12.269-12.294 12.269-19.747Z" fill="#02897A"/><path opacity=".6" d="M272.415 264.423a9.539 9.539 0 0 0-.513-3.632 8.893 8.893 0 0 0-1.825-3.079l-17.259 10.954c.145 5.066.386 10.729.808 16.83 2.245.284 4.516-.178 6.52-1.326 6.785-3.422 12.269-12.294 12.269-19.747Z" fill="#fff"/><path d="M306.606 294.474c-3.206-4.442-9.726-18.168-12.51-24.149a1.274 1.274 0 0 0-.492-.56 1.116 1.116 0 0 0-1.347.136 1.346 1.346 0 0 0-.39.649 158.942 158.942 0 0 0-5.207 34.812c-4.014-3.506-7.464-7.729-10.208-12.492a1.093 1.093 0 0 0-.468-.415.986.986 0 0 0-.598-.072 1.04 1.04 0 0 0-.539.292c-.15.152-.258.349-.311.566-5.255 22.267-2.615 44.175-2.615 44.175l38.771-24.64c-1.615-6.154-2.953-12.281-4.086-18.302Z" fill="#02897A"/><path opacity=".6" d="M306.606 294.474c-3.206-4.442-9.726-18.168-12.51-24.149a1.274 1.274 0 0 0-.492-.56 1.116 1.116 0 0 0-1.347.136 1.346 1.346 0 0 0-.39.649 158.942 158.942 0 0 0-5.207 34.812c-4.014-3.506-7.464-7.729-10.208-12.492a1.093 1.093 0 0 0-.468-.415.986.986 0 0 0-.598-.072 1.04 1.04 0 0 0-.539.292c-.15.152-.258.349-.311.566-5.255 22.267-2.615 44.175-2.615 44.175l38.771-24.64c-1.615-6.154-2.953-12.281-4.086-18.302Z" fill="#fff"/></svg>